<svg version="1.1" viewBox="0.0 0.0 312.2755905511811 262.1942257217848" fill="none" stroke="none" stroke-linecap="square" stroke-miterlimit="10" xmlns:xlink="http://www.w3.org/1999/xlink" xmlns="http://www.w3.org/2000/svg"><clipPath id="p.0"><path d="m0 0l312.2756 0l0 262.1942l-312.2756 0l0 -262.1942z" clip-rule="nonzero"/></clipPath><g clip-path="url(#p.0)"><path fill="#000000" fill-opacity="0.0" d="m0 0l312.2756 0l0 262.1942l-312.2756 0z" fill-rule="evenodd"/><path fill="#000000" fill-opacity="0.0" d="m6.7637796 222.88907c9.882764 -3.8473358 39.398514 8.686783 59.296585 -23.083984c19.898079 -31.770782 36.678917 -166.67848 60.091866 -167.5407c23.412956 -0.8622036 58.299217 134.84164 80.385826 162.36746c22.086609 27.525803 37.939636 -1.9881897 52.13385 2.7873993c14.194244 4.775589 27.526245 21.555115 33.031494 25.866135" fill-rule="evenodd"/><path stroke="#cc0000" stroke-width="8.0" stroke-linejoin="round" stroke-linecap="butt" d="m6.7637796 222.88907c9.882764 -3.8473358 39.398514 8.686783 59.296585 -23.083984c19.898079 -31.770782 36.678917 -166.67848 60.091866 -167.5407c23.412956 -0.8622036 58.299217 134.84164 80.385826 162.36746c22.086609 27.525803 37.939636 -1.9881897 52.13385 2.7873993c14.194244 4.775589 27.526245 21.555115 33.031494 25.866135" fill-rule="evenodd"/><path fill="#000000" fill-opacity="0.0" d="m8.354331 218.51202c11.54112 -1.5258026 47.69029 -5.307953 69.24672 -9.154846c21.556427 -3.8468933 40.7909 -14.722656 60.091866 -13.926514c19.300964 0.79615784 33.693787 15.321091 55.713913 18.703415c22.020111 3.3823242 60.090546 2.12117 76.40683 1.5905457c16.316254 -0.5306244 17.908997 -3.9785614 21.490814 -4.7742767" fill-rule="evenodd"/><path stroke="#4a86e8" stroke-width="8.0" stroke-linejoin="round" stroke-linecap="butt" d="m8.354331 218.51202c11.54112 -1.5258026 47.69029 -5.307953 69.24672 -9.154846c21.556427 -3.8468933 40.7909 -14.722656 60.091866 -13.926514c19.300964 0.79615784 33.693787 15.321091 55.713913 18.703415c22.020111 3.3823242 60.090546 2.12117 76.40683 1.5905457c16.316254 -0.5306244 17.908997 -3.9785614 21.490814 -4.7742767" fill-rule="evenodd"/><path fill="#000000" fill-opacity="0.0" d="m6.7637796 246.92914l303.24408 -0.7873993" fill-rule="evenodd"/><path stroke="#666666" stroke-width="8.0" stroke-linejoin="round" stroke-linecap="butt" d="m6.7637796 246.92914l255.24425 -0.66278076" fill-rule="evenodd"/><path fill="#666666" stroke="#666666" stroke-width="8.0" stroke-linecap="butt" d="m262.04236 259.4802l36.270325 -13.30809l-36.33896 -13.119553z" fill-rule="evenodd"/><path fill="#000000" fill-opacity="0.0" d="m57.70341 21.37664l145.66928 0l0 208.12598l-145.66928 0z" fill-rule="evenodd"/><path stroke="#666666" stroke-width="8.0" stroke-linejoin="round" stroke-linecap="butt" d="m57.70341 21.37664l145.66928 0l0 208.12598l-145.66928 0z" fill-rule="evenodd"/><path fill="#000000" fill-opacity="0.0" d="m158.38583 15.700788l42.992126 0l0 40.598427l-42.992126 0z" fill-rule="evenodd"/><path fill="#666666" d="m181.01083 32.530785q3.078125 0 5.546875 1.328125q2.46875 1.3125 3.859375 3.6875q1.40625 2.375 1.40625 5.390625q0 2.59375 -0.828125 4.546875q-0.8125 1.9375 -2.203125 3.453125q-1.390625 1.5 -3.59375 3.28125q-1.15625 0.921875 -1.6875 2.453125q-0.53125 1.53125 -0.53125 2.78125q0 1.0625 -0.671875 1.765625q-0.671875 0.6875 -1.765625 0.6875q-1.0625 0 -1.765625 -0.6875q-0.6875 -0.703125 -0.6875 -1.765625q0 -2.015625 1.0 -4.21875q1.015625 -2.21875 2.9375 -3.84375q1.828125 -1.53125 2.765625 -2.53125q0.9375 -1.015625 1.578125 -2.453125q0.640625 -1.453125 0.640625 -3.46875q0 -2.4375 -1.625 -4.171875q-1.625 -1.734375 -4.375 -1.734375q-3.40625 0 -5.15625 1.859375q-1.75 1.84375 -1.75 5.015625q0 1.046875 -0.671875 1.75q-0.671875 0.6875 -1.78125 0.6875q-1.046875 0 -1.75 -0.6875q-0.6875 -0.703125 -0.6875 -1.75q0 -3.3125 1.453125 -5.90625q1.46875 -2.59375 4.15625 -4.03125q2.6875 -1.4375 6.1875 -1.4375zm-0.46875 31.578125q1.390625 0 2.375 0.984375q0.984375 0.984375 0.984375 2.375q0 1.34375 -0.984375 2.328125q-0.984375 0.984375 -2.375 0.984375q-1.34375 0 -2.328125 -0.984375q-0.984375 -0.984375 -0.984375 -2.328125q0 -1.390625 0.984375 -2.375q0.984375 -0.984375 2.328125 -0.984375z" fill-rule="nonzero"/></g></svg>