<svg version="1.1" viewBox="0.0 0.0 828.1522309711286 261.8556430446194" fill="none" stroke="none" stroke-linecap="square" stroke-miterlimit="10" xmlns:xlink="http://www.w3.org/1999/xlink" xmlns="http://www.w3.org/2000/svg"><clipPath id="p.0"><path d="m0 0l828.1522 0l0 261.85565l-828.1522 0l0 -261.85565z" clip-rule="nonzero"/></clipPath><g clip-path="url(#p.0)"><path fill="#000000" fill-opacity="0.0" d="m0 0l828.1522 0l0 261.85565l-828.1522 0z" fill-rule="evenodd"/><path fill="#000000" fill-opacity="0.0" d="m305.80316 2.3858268l551.9055 0l0 265.85825l-551.9055 0z" fill-rule="evenodd"/><path fill="#000000" d="m325.36566 62.652077q-0.125 0.359375 -0.125 1.046875l0 27.265625q0 9.046875 4.234375 16.46875q4.234375 7.421875 11.59375 11.65625q7.375 4.234375 16.421875 4.234375q9.046875 0 16.40625 -4.234375q7.375 -4.234375 11.609375 -11.65625q4.234375 -7.421875 4.234375 -16.46875q0 -9.046875 -4.125 -16.40625q-4.109375 -7.375 -11.25 -11.609375q-7.125 -4.234375 -15.9375 -4.234375q-7.546875 0 -13.8125 3.1875q-6.265625 3.1875 -10.328125 8.765625l0 -34.0q0 -1.96875 -1.28125 -3.234375q-1.265625 -1.28125 -3.234375 -1.28125q-1.96875 0 -3.1875 1.28125q-1.21875 1.265625 -1.21875 3.234375l0 25.984375zm32.125 52.546875q-6.609375 0 -11.953125 -3.1875q-5.328125 -3.1875 -8.40625 -8.6875q-3.0625 -5.515625 -3.0625 -12.359375q0 -1.96875 0.109375 -2.90625q0.109375 -0.234375 0.109375 -0.578125q1.171875 -9.046875 7.609375 -14.84375q6.4375 -5.796875 15.59375 -5.796875q6.609375 0 12.0 3.140625q5.40625 3.125 8.46875 8.640625q3.078125 5.5 3.078125 12.34375q0 6.84375 -3.078125 12.359375q-3.0625 5.5 -8.46875 8.6875q-5.390625 3.1875 -12.0 3.1875zm59.965088 3.015625q0 1.984375 -1.28125 3.265625q-1.265625 1.265625 -3.234375 1.265625q-1.96875 0 -3.25 -1.265625q-1.28125 -1.28125 -1.28125 -3.265625l0 -81.546875q0 -1.96875 1.28125 -3.234375q1.28125 -1.28125 3.25 -1.28125l23.203125 0q8.46875 0 15.125 3.765625q6.671875 3.765625 10.390625 10.4375q3.71875 6.671875 3.71875 15.265625q0 8.46875 -3.71875 15.078125q-3.71875 6.609375 -10.390625 10.328125q-6.65625 3.703125 -15.125 3.703125l-18.6875 0l0 27.484375zm18.6875 -36.1875q5.90625 0 10.546875 -2.609375q4.640625 -2.609375 7.25 -7.25q2.609375 -4.640625 2.609375 -10.546875q0 -6.03125 -2.609375 -10.734375q-2.609375 -4.703125 -7.25 -7.359375q-4.640625 -2.671875 -10.546875 -2.671875l-18.6875 0l0 41.171875l18.6875 0zm69.13257 -23.3125q8.578125 0 15.1875 4.0q6.625 4.0 10.265625 11.078125q3.65625 7.078125 3.65625 16.125q0 1.859375 -1.15625 2.96875q-1.15625 1.09375 -3.015625 1.09375l-46.859375 0q0.921875 9.515625 7.421875 15.4375q6.5 5.90625 16.234375 5.90625q4.1875 0 8.421875 -1.453125q4.234375 -1.453125 6.78125 -3.65625q1.5 -1.15625 3.125 -1.15625q1.28125 0 2.5625 0.921875q1.5 1.390625 1.5 3.140625q0 1.5 -1.28125 2.671875q-3.828125 3.234375 -9.75 5.390625q-5.90625 2.140625 -11.359375 2.140625q-9.28125 0 -16.59375 -4.109375q-7.296875 -4.125 -11.421875 -11.484375q-4.109375 -7.375 -4.109375 -16.65625q0 -9.390625 3.875 -16.75q3.890625 -7.375 10.796875 -11.484375q6.90625 -4.125 15.71875 -4.125zm0 8.0q-8.8125 0 -14.625 5.453125q-5.796875 5.453125 -7.0625 14.390625l42.453125 0q-0.9375 -8.9375 -6.5 -14.390625q-5.5625 -5.453125 -14.265625 -5.453125zm73.083374 -8.0q9.046875 0 16.40625 4.234375q7.375 4.234375 11.609375 11.65625q4.234375 7.421875 4.234375 16.46875l0 27.265625q0 1.859375 -1.28125 3.140625q-1.28125 1.265625 -3.25 1.265625q-1.96875 0 -3.25 -1.21875q-1.265625 -1.21875 -1.265625 -3.1875l0 -6.96875q-4.0625 5.578125 -10.328125 8.765625q-6.265625 3.1875 -13.8125 3.1875q-8.8125 0 -15.953125 -4.234375q-7.125 -4.234375 -11.25 -11.59375q-4.109375 -7.375 -4.109375 -16.421875q0 -9.046875 4.234375 -16.46875q4.234375 -7.421875 11.59375 -11.65625q7.375 -4.234375 16.421875 -4.234375zm0 56.484375q6.609375 0 11.9375 -3.125q5.34375 -3.125 8.40625 -8.640625q3.078125 -5.515625 3.078125 -12.359375q0 -6.84375 -3.078125 -12.34375q-3.0625 -5.515625 -8.40625 -8.703125q-5.328125 -3.1875 -11.9375 -3.1875q-6.609375 0 -12.015625 3.1875q-5.390625 3.1875 -8.46875 8.703125q-3.0625 5.5 -3.0625 12.34375q0 6.84375 3.0625 12.359375q3.078125 5.515625 8.46875 8.640625q5.40625 3.125 12.015625 3.125zm97.54755 1.171875q1.046875 1.15625 1.046875 2.65625q0 1.75 -1.625 3.140625q-1.390625 1.046875 -2.78125 1.046875q-1.859375 0 -3.125 -1.625l-23.90625 -29.359375l-8.703125 7.890625l0 18.21875q0 1.96875 -1.21875 3.1875q-1.21875 1.21875 -3.1875 1.21875q-1.96875 0 -3.1875 -1.21875q-1.21875 -1.21875 -1.21875 -3.1875l0 -81.78125q0 -1.96875 1.21875 -3.1875q1.21875 -1.21875 3.1875 -1.21875q1.96875 0 3.1875 1.21875q1.21875 1.21875 1.21875 3.1875l0 52.78125l32.71875 -29.578125q1.28125 -1.15625 2.78125 -1.15625q1.734375 0 2.90625 1.390625q1.265625 1.5 1.265625 2.78125q0 1.625 -1.5 2.890625l-23.203125 21.0l24.125 29.703125zm40.367554 -57.65625q7.65625 0 13.34375 2.609375q5.6875 2.609375 9.171875 7.25q0.921875 1.515625 0.921875 2.671875q0 1.96875 -1.859375 3.125q-0.8125 0.578125 -2.203125 0.578125q-2.4375 0 -4.0625 -1.734375q-5.6875 -6.5 -15.546875 -6.5q-6.375 0 -10.203125 2.609375q-3.828125 2.609375 -3.828125 6.5625q0 4.171875 3.59375 6.671875q3.59375 2.484375 12.765625 4.0q12.40625 2.078125 17.734375 6.78125q5.34375 4.703125 5.34375 11.65625q0 5.34375 -3.1875 9.515625q-3.1875 4.171875 -8.875 6.5q-5.6875 2.3125 -12.875 2.3125q-7.1875 0 -13.796875 -2.4375q-6.609375 -2.4375 -10.671875 -6.84375q-1.171875 -1.390625 -1.171875 -2.671875q0 -1.96875 1.859375 -3.46875q1.390625 -1.046875 2.90625 -1.046875q1.96875 0 3.359375 1.625q2.78125 3.25 7.359375 4.984375q4.59375 1.734375 10.15625 1.734375q8.125 0 12.1875 -2.78125q4.0625 -2.78125 4.171875 -7.296875q0 -4.1875 -4.0625 -6.96875q-4.0625 -2.78125 -12.875 -4.171875q-11.375 -1.859375 -17.0 -6.4375q-5.625 -4.578125 -5.625 -11.078125q0 -8.46875 6.546875 -13.109375q6.5625 -4.640625 16.421875 -4.640625z" fill-rule="nonzero"/><path fill="#000000" d="m341.92816 183.02957q6.234375 0 11.3125 2.921875q5.078125 2.921875 8.0 8.046875q2.921875 5.109375 2.921875 11.34375l0 18.796875q0 1.28125 -0.890625 2.171875q-0.875 0.875 -2.234375 0.875q-1.359375 0 -2.234375 -0.84375q-0.875 -0.84375 -0.875 -2.203125l0 -4.796875q-2.8125 3.84375 -7.125 6.046875q-4.3125 2.203125 -9.515625 2.203125q-6.078125 0 -11.0 -2.921875q-4.921875 -2.921875 -7.765625 -8.0q-2.84375 -5.078125 -2.84375 -11.328125q0 -6.234375 2.921875 -11.34375q2.921875 -5.125 8.0 -8.046875q5.078125 -2.921875 11.328125 -2.921875zm0 38.953125q4.5625 0 8.234375 -2.15625q3.6875 -2.15625 5.796875 -5.953125q2.125 -3.8125 2.125 -8.53125q0 -4.71875 -2.125 -8.515625q-2.109375 -3.796875 -5.796875 -6.0q-3.671875 -2.203125 -8.234375 -2.203125q-4.5625 0 -8.28125 2.203125q-3.71875 2.203125 -5.84375 6.0q-2.125 3.796875 -2.125 8.515625q0 4.71875 2.125 8.53125q2.125 3.796875 5.84375 5.953125q3.71875 2.15625 8.28125 2.15625zm56.472443 -38.953125q6.25 0 11.328125 2.921875q5.078125 2.921875 8.0 8.046875q2.921875 5.109375 2.921875 11.34375q0 6.25 -2.84375 11.328125q-2.84375 5.078125 -7.765625 8.0q-4.921875 2.921875 -11.0 2.921875q-5.203125 0 -9.53125 -2.203125q-4.3125 -2.203125 -7.109375 -6.046875l0 23.4375q0 1.359375 -0.875 2.234375q-0.875 0.890625 -2.25 0.890625q-1.359375 0 -2.203125 -0.890625q-0.828125 -0.875 -0.828125 -2.234375l0 -17.90625q-0.078125 -0.25 -0.078125 -0.734375l0 -18.796875q0 -6.234375 2.921875 -11.34375q2.921875 -5.125 8.0 -8.046875q5.078125 -2.921875 11.3125 -2.921875zm0 38.953125q4.5625 0 8.28125 -2.15625q3.71875 -2.15625 5.84375 -5.953125q2.125 -3.8125 2.125 -8.53125q0 -4.71875 -2.125 -8.515625q-2.125 -3.796875 -5.84375 -6.0q-3.71875 -2.203125 -8.28125 -2.203125q-4.5625 0 -8.25 2.203125q-3.671875 2.203125 -5.796875 6.0q-2.109375 3.796875 -2.109375 8.515625q0 1.359375 0.078125 2.0q0.078125 0.15625 0.078125 0.40625q0.796875 6.234375 5.234375 10.234375q4.453125 4.0 10.765625 4.0zm56.559937 -38.953125q6.25 0 11.328125 2.921875q5.078125 2.921875 8.0 8.046875q2.921875 5.109375 2.921875 11.34375q0 6.25 -2.84375 11.328125q-2.84375 5.078125 -7.765625 8.0q-4.921875 2.921875 -11.0 2.921875q-5.203125 0 -9.53125 -2.203125q-4.3125 -2.203125 -7.109375 -6.046875l0 23.4375q0 1.359375 -0.875 2.234375q-0.875 0.890625 -2.25 0.890625q-1.359375 0 -2.203125 -0.890625q-0.828125 -0.875 -0.828125 -2.234375l0 -17.90625q-0.078125 -0.25 -0.078125 -0.734375l0 -18.796875q0 -6.234375 2.921875 -11.34375q2.921875 -5.125 8.0 -8.046875q5.078125 -2.921875 11.3125 -2.921875zm0 38.953125q4.5625 0 8.28125 -2.15625q3.71875 -2.15625 5.84375 -5.953125q2.125 -3.8125 2.125 -8.53125q0 -4.71875 -2.125 -8.515625q-2.125 -3.796875 -5.84375 -6.0q-3.71875 -2.203125 -8.28125 -2.203125q-4.5625 0 -8.25 2.203125q-3.671875 2.203125 -5.796875 6.0q-2.109375 3.796875 -2.109375 8.515625q0 1.359375 0.078125 2.0q0.078125 0.15625 0.078125 0.40625q0.796875 6.234375 5.234375 10.234375q4.453125 4.0 10.765625 4.0zm32.716217 -54.234375q0 -1.359375 0.875 -2.203125q0.890625 -0.84375 2.171875 -0.84375q1.359375 0 2.203125 0.84375q0.84375 0.84375 0.84375 2.203125l0 45.59375q0 3.4375 1.390625 5.609375q1.40625 2.15625 3.5625 2.15625l2.0 0q1.203125 0 1.921875 0.84375q0.71875 0.828125 0.71875 2.1875q0 1.359375 -1.0 2.203125q-1.0 0.84375 -2.59375 0.84375l-1.046875 0q-4.875 0 -7.96875 -3.875q-3.078125 -3.890625 -3.078125 -9.96875l0 -45.59375zm25.450623 18.796875q0 -1.359375 0.875 -2.234375q0.875 -0.890625 2.234375 -0.890625q1.359375 0 2.203125 0.890625q0.84375 0.875 0.84375 2.234375l0 37.515625q0 1.359375 -0.84375 2.25q-0.84375 0.875 -2.203125 0.875q-1.359375 0 -2.234375 -0.875q-0.875 -0.890625 -0.875 -2.25l0 -37.515625zm3.109375 -20.15625q1.765625 0 3.046875 1.203125q1.28125 1.1875 1.28125 3.109375q0 1.84375 -1.28125 3.125q-1.28125 1.28125 -3.125 1.28125q-1.84375 0 -3.078125 -1.28125q-1.2344055 -1.28125 -1.2344055 -3.125q0 -1.921875 1.2656555 -3.109375q1.28125 -1.203125 3.125 -1.203125zm37.44806 16.640625q10.0 0 16.234375 7.671875q0.640625 0.71875 0.640625 1.6875q0 1.28125 -1.359375 2.234375q-0.71875 0.484375 -1.515625 0.484375q-1.203125 0 -2.328125 -1.203125q-2.390625 -2.640625 -5.28125 -3.953125q-2.875 -1.328125 -6.390625 -1.328125q-4.40625 0 -7.84375 2.125q-3.4375 2.125 -5.328125 5.96875q-1.875 3.828125 -1.875 8.625q0 4.71875 2.0 8.53125q2.0 3.796875 5.59375 5.953125q3.609375 2.15625 8.25 2.15625q6.40625 0 10.328125 -3.4375q1.03125 -0.875 2.15625 -0.875q0.953125 0 1.75 0.640625q1.125 0.953125 1.125 2.15625q0 1.03125 -0.796875 1.765625q-5.765625 5.359375 -14.5625 5.359375q-6.234375 0 -11.203125 -2.921875q-4.953125 -2.921875 -7.796875 -8.0q-2.84375 -5.078125 -2.84375 -11.328125q0 -6.390625 2.71875 -11.46875q2.71875 -5.09375 7.515625 -7.96875q4.8125 -2.875 10.8125 -2.875zm48.883118 0q6.234375 0 11.3125 2.921875q5.078125 2.921875 8.0 8.046875q2.921875 5.109375 2.921875 11.34375l0 18.796875q0 1.28125 -0.890625 2.171875q-0.875 0.875 -2.234375 0.875q-1.359375 0 -2.234375 -0.84375q-0.875 -0.84375 -0.875 -2.203125l0 -4.796875q-2.8125 3.84375 -7.125 6.046875q-4.3125 2.203125 -9.515625 2.203125q-6.078125 0 -11.0 -2.921875q-4.921875 -2.921875 -7.765625 -8.0q-2.84375 -5.078125 -2.84375 -11.328125q0 -6.234375 2.921875 -11.34375q2.921875 -5.125 8.0 -8.046875q5.078125 -2.921875 11.328125 -2.921875zm0 38.953125q4.5625 0 8.234375 -2.15625q3.6875 -2.15625 5.796875 -5.953125q2.125 -3.8125 2.125 -8.53125q0 -4.71875 -2.125 -8.515625q-2.109375 -3.796875 -5.796875 -6.0q-3.671875 -2.203125 -8.234375 -2.203125q-4.5625 0 -8.28125 2.203125q-3.71875 2.203125 -5.84375 6.0q-2.125 3.796875 -2.125 8.515625q0 4.71875 2.125 8.53125q2.125 3.796875 5.84375 5.953125q3.71875 2.15625 8.28125 2.15625zm53.519287 -0.953125q1.28125 0 2.078125 0.875q0.796875 0.875 0.796875 2.234375q0 1.28125 -0.96875 2.171875q-0.953125 0.875 -2.390625 0.875l-1.6875 0q-4.234375 0 -7.59375 -2.03125q-3.359375 -2.046875 -5.25 -5.53125q-1.875 -3.484375 -1.875 -7.875l0 -21.359375l-5.1875 0q-1.28125 0 -2.046875 -0.75q-0.765625 -0.765625 -0.765625 -1.890625q0 -1.203125 0.765625 -1.953125q0.765625 -0.765625 2.046875 -0.765625l5.1875 0l0 -12.40625q0 -1.359375 0.84375 -2.234375q0.84375 -0.890625 2.203125 -0.890625q1.359375 0 2.234375 0.890625q0.890625 0.875 0.890625 2.234375l0 12.40625l9.03125 0q1.28125 0 2.03125 0.765625q0.765625 0.75 0.765625 1.953125q0 1.125 -0.765625 1.890625q-0.75 0.75 -2.03125 0.75l-9.03125 0l0 21.359375q0 4.078125 2.390625 6.6875q2.40625 2.59375 6.15625 2.59375l2.171875 0zm14.159973 -34.484375q0 -1.359375 0.875 -2.234375q0.875 -0.890625 2.234375 -0.890625q1.359375 0 2.203125 0.890625q0.84375 0.875 0.84375 2.234375l0 37.515625q0 1.359375 -0.84375 2.25q-0.84375 0.875 -2.203125 0.875q-1.359375 0 -2.234375 -0.875q-0.875 -0.890625 -0.875 -2.25l0 -37.515625zm3.109375 -20.15625q1.765625 0 3.046875 1.203125q1.28125 1.1875 1.28125 3.109375q0 1.84375 -1.28125 3.125q-1.28125 1.28125 -3.125 1.28125q-1.84375 0 -3.078125 -1.28125q-1.234375 -1.28125 -1.234375 -3.125q0 -1.921875 1.265625 -3.109375q1.28125 -1.203125 3.125 -1.203125zm38.651245 16.640625q6.3125 0 11.34375 2.875q5.046875 2.875 7.96875 8.0q2.921875 5.125 2.921875 11.4375q0 6.328125 -2.890625 11.40625q-2.875 5.078125 -7.953125 7.96875q-5.078125 2.875 -11.390625 2.875q-6.328125 0 -11.40625 -2.875q-5.078125 -2.890625 -7.96875 -7.96875q-2.875 -5.078125 -2.875 -11.40625q0 -6.3125 2.875 -11.4375q2.890625 -5.125 7.96875 -8.0q5.078125 -2.875 11.40625 -2.875zm0 5.59375q-4.5625 0 -8.28125 2.171875q-3.71875 2.15625 -5.84375 5.953125q-2.125 3.796875 -2.125 8.59375q0 4.71875 2.125 8.53125q2.125 3.796875 5.84375 5.953125q3.71875 2.15625 8.28125 2.15625q4.640625 0 8.3125 -2.15625q3.6875 -2.15625 5.765625 -5.953125q2.078125 -3.8125 2.078125 -8.53125q0 -4.796875 -2.078125 -8.59375q-2.078125 -3.796875 -5.765625 -5.953125q-3.671875 -2.171875 -8.3125 -2.171875zm54.956787 -5.671875q5.671875 0 10.1875 2.40625q4.53125 2.390625 7.09375 7.0q2.5625 4.59375 2.5625 10.984375l0 20.796875q0 1.28125 -0.890625 2.171875q-0.875 0.875 -2.15625 0.875q-1.359375 0 -2.25 -0.875q-0.875 -0.890625 -0.875 -2.171875l0 -20.796875q0 -7.109375 -3.953125 -10.828125q-3.953125 -3.734375 -10.359375 -3.734375q-3.921875 0 -7.078125 1.53125q-3.15625 1.515625 -5.0 4.203125q-1.84375 2.671875 -1.84375 5.953125l0 23.671875q0 1.359375 -0.84375 2.203125q-0.828125 0.84375 -2.203125 0.84375q-1.359375 0 -2.234375 -0.84375q-0.875 -0.84375 -0.875 -2.203125l0 -37.59375q0 -1.359375 0.875 -2.234375q0.875 -0.890625 2.234375 -0.890625q1.375 0 2.203125 0.890625q0.84375 0.875 0.84375 2.234375l0 2.71875q2.640625 -2.953125 6.390625 -4.625q3.765625 -1.6875 8.171875 -1.6875z" fill-rule="nonzero"/><path fill="#000000" fill-opacity="0.0" d="m6.7637796 230.88907c9.882764 -3.8473358 39.398514 8.686783 59.296585 -23.083984c19.898079 -31.770782 36.678917 -166.67848 60.091866 -167.5407c23.412956 -0.8622017 58.299217 134.84164 80.385826 162.36746c22.086609 27.525803 37.939636 -1.9881897 52.13385 2.7873993c14.194244 4.775589 27.526245 21.555115 33.031494 25.866135" fill-rule="evenodd"/><path stroke="#cc0000" stroke-width="3.0" stroke-linejoin="round" stroke-linecap="butt" d="m6.7637796 230.88907c9.882764 -3.8473358 39.398514 8.686783 59.296585 -23.083984c19.898079 -31.770782 36.678917 -166.67848 60.091866 -167.5407c23.412956 -0.8622017 58.299217 134.84164 80.385826 162.36746c22.086609 27.525803 37.939636 -1.9881897 52.13385 2.7873993c14.194244 4.775589 27.526245 21.555115 33.031494 25.866135" fill-rule="evenodd"/><path fill="#000000" fill-opacity="0.0" d="m8.354331 226.51202c11.54112 -1.5258026 47.69029 -5.307953 69.24672 -9.154846c21.556427 -3.8468933 40.7909 -14.722656 60.091866 -13.926514c19.300964 0.79615784 33.693787 15.321091 55.713913 18.703415c22.020111 3.3823242 60.090546 2.12117 76.40683 1.5905457c16.316254 -0.5306244 17.908997 -3.9785614 21.490814 -4.7742767" fill-rule="evenodd"/><path stroke="#4a86e8" stroke-width="3.0" stroke-linejoin="round" stroke-linecap="butt" d="m8.354331 226.51202c11.54112 -1.5258026 47.69029 -5.307953 69.24672 -9.154846c21.556427 -3.8468933 40.7909 -14.722656 60.091866 -13.926514c19.300964 0.79615784 33.693787 15.321091 55.713913 18.703415c22.020111 3.3823242 60.090546 2.12117 76.40683 1.5905457c16.316254 -0.5306244 17.908997 -3.9785614 21.490814 -4.7742767" fill-rule="evenodd"/><path fill="#000000" fill-opacity="0.0" d="m6.7637796 246.92914l303.24408 -0.7873993" fill-rule="evenodd"/><path stroke="#666666" stroke-width="2.0" stroke-linejoin="round" stroke-linecap="butt" d="m6.7637796 246.92914l291.2441 -0.75624084" fill-rule="evenodd"/><path fill="#666666" stroke="#666666" stroke-width="2.0" stroke-linecap="butt" d="m298.01648 249.47635l9.067596 -3.3270264l-9.084747 -3.279892z" fill-rule="evenodd"/><path fill="#000000" fill-opacity="0.0" d="m57.70341 31.699474l145.66928 0l0 208.12598l-145.66928 0z" fill-rule="evenodd"/><path stroke="#666666" stroke-width="3.0" stroke-linejoin="round" stroke-linecap="butt" d="m57.70341 31.699474l145.66928 0l0 208.12598l-145.66928 0z" fill-rule="evenodd"/><path fill="#000000" fill-opacity="0.0" d="m158.38583 23.700787l42.992126 0l0 40.598423l-42.992126 0z" fill-rule="evenodd"/><path fill="#666666" d="m180.68271 40.530785q3.171875 0 5.6875 1.375q2.515625 1.359375 3.9375 3.765625q1.421875 2.390625 1.421875 5.40625q0 2.359375 -0.78125 4.109375q-0.765625 1.75 -1.9375 3.09375q-1.171875 1.34375 -3.34375 3.3125l-0.859375 0.765625q-1.34375 1.203125 -1.90625 2.8125q-0.546875 1.609375 -0.546875 3.1875q0 0.828125 -0.53125 1.375q-0.515625 0.546875 -1.328125 0.546875q-0.828125 0 -1.359375 -0.546875q-0.515625 -0.546875 -0.515625 -1.375q0 -1.96875 0.953125 -4.171875q0.96875 -2.203125 2.59375 -3.75l1.203125 -1.09375q1.625 -1.53125 2.53125 -2.5625q0.921875 -1.046875 1.515625 -2.5q0.609375 -1.46875 0.609375 -3.390625q0 -1.875 -0.921875 -3.421875q-0.90625 -1.5625 -2.59375 -2.46875q-1.671875 -0.921875 -3.828125 -0.921875q-3.546875 0 -5.640625 2.140625q-2.09375 2.125 -2.09375 5.53125q0 0.828125 -0.5 1.328125q-0.5 0.5 -1.3125 0.5q-0.828125 0 -1.359375 -0.5q-0.515625 -0.5 -0.515625 -1.328125q0 -3.25 1.4375 -5.796875q1.4375 -2.546875 4.03125 -3.984375q2.59375 -1.4375 5.953125 -1.4375zm-0.1875 32.640625q1.140625 0 1.984375 0.8125q0.84375 0.8125 0.84375 2.015625q0 1.15625 -0.84375 1.96875q-0.84375 0.8125 -1.984375 0.8125q-1.203125 0 -2.0 -0.8125q-0.796875 -0.8125 -0.796875 -1.96875q0 -1.203125 0.8125 -2.015625q0.828125 -0.8125 1.984375 -0.8125z" fill-rule="nonzero"/></g></svg>