<svg version="1.1" viewBox="0.0 0.0 954.2309711286089 262.9238845144357" fill="none" stroke="none" stroke-linecap="square" stroke-miterlimit="10" xmlns:xlink="http://www.w3.org/1999/xlink" xmlns="http://www.w3.org/2000/svg"><clipPath id="p.0"><path d="m0 0l954.23096 0l0 262.9239l-954.23096 0l0 -262.9239z" clip-rule="nonzero"/></clipPath><g clip-path="url(#p.0)"><path fill="#000000" fill-opacity="0.0" d="m0 0l954.23096 0l0 262.9239l-954.23096 0z" fill-rule="evenodd"/><path stroke="#666666" stroke-width="3.0" stroke-linecap="butt" d="m504.8294 37.307087l0 209.38058" fill-rule="nonzero"/><path stroke="#666666" stroke-width="3.0" stroke-linecap="butt" d="m642.6877 37.307087l0 209.38058" fill-rule="nonzero"/><path stroke="#666666" stroke-width="3.0" stroke-linecap="butt" d="m780.54596 37.307087l0 209.38058" fill-rule="nonzero"/><path stroke="#666666" stroke-width="3.0" stroke-linecap="butt" d="m918.4042 37.307087l0 209.38058" fill-rule="nonzero"/><path stroke="#666666" stroke-width="3.0" stroke-linecap="butt" d="m503.33072 38.805775l416.57217 0" fill-rule="nonzero"/><path stroke="#666666" stroke-width="3.0" stroke-linecap="butt" d="m503.33072 80.002625l416.57217 0" fill-rule="nonzero"/><path stroke="#666666" stroke-width="3.0" stroke-linecap="butt" d="m503.33072 121.59843l416.57217 0" fill-rule="nonzero"/><path stroke="#666666" stroke-width="3.0" stroke-linecap="butt" d="m503.33072 162.79527l416.57217 0" fill-rule="nonzero"/><path stroke="#666666" stroke-width="3.0" stroke-linecap="butt" d="m503.33072 203.99213l416.57217 0" fill-rule="nonzero"/><path stroke="#666666" stroke-width="3.0" stroke-linecap="butt" d="m503.33072 245.18898l416.57217 0" fill-rule="nonzero"/><path fill="#000000" d="m524.79816 61.038273l1.765625 0.453125q-0.5625 2.171875 -2.0 3.3281212q-1.4375 1.140625 -3.53125 1.140625q-2.15625 0 -3.515625 -0.875q-1.34375 -0.890625 -2.0625 -2.5468712q-0.703125 -1.671875 -0.703125 -3.59375q0 -2.078125 0.796875 -3.625q0.796875 -1.5625 2.265625 -2.359375q1.484375 -0.8125 3.25 -0.8125q2.0 0 3.359375 1.015625q1.375 1.015625 1.90625 2.875l-1.734375 0.40625q-0.46875 -1.453125 -1.359375 -2.109375q-0.875 -0.671875 -2.203125 -0.671875q-1.546875 0 -2.578125 0.734375q-1.03125 0.734375 -1.453125 1.984375q-0.421875 1.234375 -0.421875 2.5625q0 1.703125 0.5 2.96875q0.5 1.265625 1.546875 1.90625q1.046875 0.6249962 2.265625 0.6249962q1.484375 0 2.515625 -0.8593712q1.03125 -0.859375 1.390625 -2.546875zm3.7385864 4.687496l0 -13.359371l1.640625 0l0 4.796875q1.140625 -1.328125 2.890625 -1.328125q1.078125 0 1.859375 0.421875q0.796875 0.421875 1.140625 1.171875q0.34375 0.75 0.34375 2.171875l0 6.124996l-1.640625 0l0 -6.124996q0 -1.234375 -0.53125 -1.796875q-0.53125 -0.5625 -1.515625 -0.5625q-0.71875 0 -1.359375 0.390625q-0.640625 0.375 -0.921875 1.015625q-0.265625 0.640625 -0.265625 1.78125l0 5.296871l-1.640625 0zm10.360046 0l0 -9.671871l1.46875 0l0 1.46875q0.5625 -1.03125 1.03125 -1.359375q0.484375 -0.328125 1.0625 -0.328125q0.828125 0 1.6875 0.53125l-0.5625 1.515625q-0.609375 -0.359375 -1.203125 -0.359375q-0.546875 0 -0.96875 0.328125q-0.421875 0.328125 -0.609375 0.890625q-0.28125 0.875 -0.28125 1.921875l0 5.062496l-1.625 0zm5.6189575 -4.843746q0 -2.6875 1.484375 -3.96875q1.25 -1.078125 3.046875 -1.078125q2.0 0 3.265625 1.3125q1.265625 1.296875 1.265625 3.609375q0 1.859375 -0.5625 2.9375q-0.5625 1.0624962 -1.640625 1.6562462q-1.0625 0.59375 -2.328125 0.59375q-2.03125 0 -3.28125 -1.296875q-1.25 -1.3124962 -1.25 -3.7656212zm1.6875 0q0 1.859375 0.796875 2.796875q0.8125 0.9218712 2.046875 0.9218712q1.21875 0 2.03125 -0.9218712q0.8125 -0.9375 0.8125 -2.84375q0 -1.796875 -0.8125 -2.71875q-0.8125 -0.921875 -2.03125 -0.921875q-1.234375 0 -2.046875 0.921875q-0.796875 0.90625 -0.796875 2.765625zm9.297607 4.843746l0 -9.671871l1.46875 0l0 1.359375q0.453125 -0.71875 1.203125 -1.140625q0.765625 -0.4375 1.71875 -0.4375q1.078125 0 1.765625 0.453125q0.6875 0.4375 0.96875 1.234375q1.15625 -1.6875 2.984375 -1.6875q1.453125 0 2.21875 0.796875q0.78125 0.796875 0.78125 2.453125l0 6.640621l-1.640625 0l0 -6.093746q0 -0.984375 -0.15625 -1.40625q-0.15625 -0.4375 -0.578125 -0.703125q-0.421875 -0.265625 -0.984375 -0.265625q-1.015625 0 -1.6875 0.6875q-0.671875 0.671875 -0.671875 2.15625l0 5.624996l-1.640625 0l0 -6.281246q0 -1.09375 -0.40625 -1.640625q-0.40625 -0.546875 -1.3125 -0.546875q-0.6875 0 -1.28125 0.359375q-0.59375 0.359375 -0.859375 1.0625q-0.25 0.703125 -0.25 2.03125l0 5.015621l-1.640625 0zm14.9313965 -4.843746q0 -2.6875 1.484375 -3.96875q1.25 -1.078125 3.046875 -1.078125q2.0 0 3.265625 1.3125q1.265625 1.296875 1.265625 3.609375q0 1.859375 -0.5625 2.9375q-0.5625 1.0624962 -1.640625 1.6562462q-1.0625 0.59375 -2.328125 0.59375q-2.03125 0 -3.28125 -1.296875q-1.25 -1.3124962 -1.25 -3.7656212zm1.6875 0q0 1.859375 0.796875 2.796875q0.8125 0.9218712 2.046875 0.9218712q1.21875 0 2.03125 -0.9218712q0.8125 -0.9375 0.8125 -2.84375q0 -1.796875 -0.8125 -2.71875q-0.8125 -0.921875 -2.03125 -0.921875q-1.234375 0 -2.046875 0.921875q-0.796875 0.90625 -0.796875 2.765625zm8.641357 1.953125l1.625 -0.25q0.125 0.96875 0.75 1.4999962q0.625 0.515625 1.75 0.515625q1.125 0 1.671875 -0.453125q0.546875 -0.4687462 0.546875 -1.0937462q0 -0.546875 -0.484375 -0.875q-0.328125 -0.21875 -1.671875 -0.546875q-1.8125 -0.46875 -2.515625 -0.796875q-0.6875 -0.328125 -1.046875 -0.90625q-0.359375 -0.59375 -0.359375 -1.3125q0 -0.640625 0.296875 -1.1875q0.296875 -0.5625 0.8125 -0.921875q0.375 -0.28125 1.03125 -0.46875q0.671875 -0.203125 1.421875 -0.203125q1.140625 0 2.0 0.328125q0.859375 0.328125 1.265625 0.890625q0.421875 0.5625 0.578125 1.5l-1.609375 0.21875q-0.109375 -0.75 -0.640625 -1.171875q-0.515625 -0.421875 -1.46875 -0.421875q-1.140625 0 -1.625 0.375q-0.46875 0.375 -0.46875 0.875q0 0.3125 0.1875 0.578125q0.203125 0.265625 0.640625 0.4375q0.234375 0.09375 1.4375 0.421875q1.75 0.453125 2.4375 0.75q0.6875 0.296875 1.078125 0.859375q0.390625 0.5625 0.390625 1.40625q0 0.828125 -0.484375 1.5468712q-0.46875 0.71875 -1.375 1.125q-0.90625 0.390625 -2.046875 0.390625q-1.875 0 -2.875 -0.78125q-0.984375 -0.78125 -1.25 -2.3281212zm9.375 -1.953125q0 -2.6875 1.484375 -3.96875q1.25 -1.078125 3.046875 -1.078125q2.0 0 3.265625 1.3125q1.265625 1.296875 1.265625 3.609375q0 1.859375 -0.5625 2.9375q-0.5625 1.0624962 -1.640625 1.6562462q-1.0625 0.59375 -2.328125 0.59375q-2.03125 0 -3.28125 -1.296875q-1.25 -1.3124962 -1.25 -3.7656212zm1.6875 0q0 1.859375 0.796875 2.796875q0.8125 0.9218712 2.046875 0.9218712q1.21875 0 2.03125 -0.9218712q0.8125 -0.9375 0.8125 -2.84375q0 -1.796875 -0.8125 -2.71875q-0.8125 -0.921875 -2.03125 -0.921875q-1.234375 0 -2.046875 0.921875q-0.796875 0.90625 -0.796875 2.765625zm9.297607 4.843746l0 -9.671871l1.46875 0l0 1.359375q0.453125 -0.71875 1.203125 -1.140625q0.765625 -0.4375 1.71875 -0.4375q1.078125 0 1.765625 0.453125q0.6875 0.4375 0.96875 1.234375q1.15625 -1.6875 2.984375 -1.6875q1.453125 0 2.21875 0.796875q0.78125 0.796875 0.78125 2.453125l0 6.640621l-1.640625 0l0 -6.093746q0 -0.984375 -0.15625 -1.40625q-0.15625 -0.4375 -0.578125 -0.703125q-0.421875 -0.265625 -0.984375 -0.265625q-1.015625 0 -1.6875 0.6875q-0.671875 0.671875 -0.671875 2.15625l0 5.624996l-1.640625 0l0 -6.281246q0 -1.09375 -0.40625 -1.640625q-0.40625 -0.546875 -1.3125 -0.546875q-0.6875 0 -1.28125 0.359375q-0.59375 0.359375 -0.859375 1.0625q-0.25 0.703125 -0.25 2.03125l0 5.015621l-1.640625 0zm22.165771 -3.1093712l1.6875 0.203125q-0.40625 1.4843712 -1.484375 2.3124962q-1.078125 0.8125 -2.765625 0.8125q-2.125 0 -3.375 -1.296875q-1.234375 -1.3124962 -1.234375 -3.6718712q0 -2.453125 1.25 -3.796875q1.265625 -1.34375 3.265625 -1.34375q1.9375 0 3.15625 1.328125q1.234375 1.3125 1.234375 3.703125q0 0.15625 0 0.4375l-7.21875 0q0.09375 1.59375 0.90625 2.453125q0.8125 0.8437462 2.015625 0.8437462q0.90625 0 1.546875 -0.46875q0.640625 -0.4843712 1.015625 -1.5156212zm-5.390625 -2.65625l5.40625 0q-0.109375 -1.21875 -0.625 -1.828125q-0.78125 -0.953125 -2.03125 -0.953125q-1.125 0 -1.90625 0.765625q-0.765625 0.75 -0.84375 2.015625z" fill-rule="nonzero"/><path fill="#000000" d="m653.1252 65.72577l0 -13.359371l5.046875 0q1.328125 0 2.03125 0.125q0.96875 0.171875 1.640625 0.640625q0.671875 0.453125 1.078125 1.28125q0.40625 0.828125 0.40625 1.828125q0 1.703125 -1.09375 2.890625q-1.078125 1.171875 -3.921875 1.171875l-3.421875 0l0 5.421871l-1.765625 0zm1.765625 -6.999996l3.453125 0q1.71875 0 2.4375 -0.640625q0.71875 -0.640625 0.71875 -1.796875q0 -0.84375 -0.421875 -1.4375q-0.421875 -0.59375 -1.125 -0.78125q-0.4375 -0.125 -1.640625 -0.125l-3.421875 0l0 4.78125zm9.8654175 2.15625q0 -2.6875 1.484375 -3.96875q1.25 -1.078125 3.046875 -1.078125q2.0 0 3.265625 1.3125q1.265625 1.296875 1.265625 3.609375q0 1.859375 -0.5625 2.9375q-0.5625 1.0624962 -1.640625 1.6562462q-1.0625 0.59375 -2.328125 0.59375q-2.03125 0 -3.28125 -1.296875q-1.25 -1.3124962 -1.25 -3.7656212zm1.6875 0q0 1.859375 0.796875 2.796875q0.8125 0.9218712 2.046875 0.9218712q1.21875 0 2.03125 -0.9218712q0.8125 -0.9375 0.8125 -2.84375q0 -1.796875 -0.8125 -2.71875q-0.8125 -0.921875 -2.03125 -0.921875q-1.234375 0 -2.046875 0.921875q-0.796875 0.90625 -0.796875 2.765625zm8.641357 1.953125l1.625 -0.25q0.125 0.96875 0.75 1.4999962q0.625 0.515625 1.75 0.515625q1.125 0 1.671875 -0.453125q0.546875 -0.4687462 0.546875 -1.0937462q0 -0.546875 -0.484375 -0.875q-0.328125 -0.21875 -1.671875 -0.546875q-1.8125 -0.46875 -2.515625 -0.796875q-0.6875 -0.328125 -1.046875 -0.90625q-0.359375 -0.59375 -0.359375 -1.3125q0 -0.640625 0.296875 -1.1875q0.296875 -0.5625 0.8125 -0.921875q0.375 -0.28125 1.03125 -0.46875q0.671875 -0.203125 1.421875 -0.203125q1.140625 0 2.0 0.328125q0.859375 0.328125 1.265625 0.890625q0.421875 0.5625 0.578125 1.5l-1.609375 0.21875q-0.109375 -0.75 -0.640625 -1.171875q-0.515625 -0.421875 -1.46875 -0.421875q-1.140625 0 -1.625 0.375q-0.46875 0.375 -0.46875 0.875q0 0.3125 0.1875 0.578125q0.203125 0.265625 0.640625 0.4375q0.234375 0.09375 1.4375 0.421875q1.75 0.453125 2.4375 0.75q0.6875 0.296875 1.078125 0.859375q0.390625 0.5625 0.390625 1.40625q0 0.828125 -0.484375 1.5468712q-0.46875 0.71875 -1.375 1.125q-0.90625 0.390625 -2.046875 0.390625q-1.875 0 -2.875 -0.78125q-0.984375 -0.78125 -1.25 -2.3281212zm9.984375 -8.578125l0 -1.890625l1.640625 0l0 1.890625l-1.640625 0zm0 11.468746l0 -9.671871l1.640625 0l0 9.671871l-1.640625 0zm7.7229614 -1.46875l0.234375 1.453125q-0.6875 0.140625 -1.234375 0.140625q-0.890625 0 -1.390625 -0.28125q-0.484375 -0.28125 -0.6875 -0.734375q-0.203125 -0.46875 -0.203125 -1.9374962l0 -5.578125l-1.203125 0l0 -1.265625l1.203125 0l0 -2.390625l1.625 -0.984375l0 3.375l1.65625 0l0 1.265625l-1.65625 0l0 5.671875q0 0.6875 0.078125 0.890625q0.09375 0.20312119 0.28125 0.3281212q0.203125 0.109375 0.578125 0.109375q0.265625 0 0.71875 -0.0625zm1.6051636 -9.999996l0 -1.890625l1.640625 0l0 1.890625l-1.640625 0zm0 11.468746l0 -9.671871l1.640625 0l0 9.671871l-1.640625 0zm3.5354614 -4.843746q0 -2.6875 1.484375 -3.96875q1.25 -1.078125 3.046875 -1.078125q2.0 0 3.265625 1.3125q1.265625 1.296875 1.265625 3.609375q0 1.859375 -0.5625 2.9375q-0.5625 1.0624962 -1.640625 1.6562462q-1.0625 0.59375 -2.328125 0.59375q-2.03125 0 -3.28125 -1.296875q-1.25 -1.3124962 -1.25 -3.7656212zm1.6875 0q0 1.859375 0.796875 2.796875q0.8125 0.9218712 2.046875 0.9218712q1.21875 0 2.03125 -0.9218712q0.8125 -0.9375 0.8125 -2.84375q0 -1.796875 -0.8125 -2.71875q-0.8125 -0.921875 -2.03125 -0.921875q-1.234375 0 -2.046875 0.921875q-0.796875 0.90625 -0.796875 2.765625zm9.297546 4.843746l0 -9.671871l1.46875 0l0 1.375q1.0625 -1.59375 3.078125 -1.59375q0.875 0 1.609375 0.3125q0.734375 0.3125 1.09375 0.828125q0.375 0.5 0.515625 1.203125q0.09375 0.453125 0.09375 1.59375l0 5.953121l-1.640625 0l0 -5.890621q0 -1.0 -0.203125 -1.484375q-0.1875 -0.5 -0.671875 -0.796875q-0.484375 -0.296875 -1.140625 -0.296875q-1.046875 0 -1.8125 0.671875q-0.75 0.65625 -0.75 2.515625l0 5.281246l-1.640625 0z" fill-rule="nonzero"/><path fill="#000000" d="m791.0147 65.72577l0 -13.359371l5.921875 0q1.78125 0 2.703125 0.359375q0.9375 0.359375 1.484375 1.28125q0.5625 0.90625 0.5625 2.015625q0 1.40625 -0.921875 2.390625q-0.921875 0.96875 -2.84375 1.234375q0.703125 0.34375 1.078125 0.671875q0.765625 0.703125 1.453125 1.765625l2.328125 3.6406212l-2.21875 0l-1.765625 -2.7812462q-0.78125 -1.203125 -1.28125 -1.828125q-0.5 -0.640625 -0.90625 -0.890625q-0.390625 -0.265625 -0.796875 -0.359375q-0.296875 -0.078125 -0.984375 -0.078125l-2.046875 0l0 5.937496l-1.765625 0zm1.765625 -7.453121l3.796875 0q1.21875 0 1.890625 -0.25q0.6875 -0.265625 1.046875 -0.8125q0.359375 -0.546875 0.359375 -1.1875q0 -0.953125 -0.6875 -1.5625q-0.6875 -0.609375 -2.1875 -0.609375l-4.21875 0l0 4.421875zm18.0979 4.34375l1.6875 0.203125q-0.40625 1.4843712 -1.484375 2.3124962q-1.078125 0.8125 -2.765625 0.8125q-2.125 0 -3.375 -1.296875q-1.234375 -1.3124962 -1.234375 -3.6718712q0 -2.453125 1.25 -3.796875q1.265625 -1.34375 3.265625 -1.34375q1.9375 0 3.15625 1.328125q1.234375 1.3125 1.234375 3.703125q0 0.15625 0 0.4375l-7.21875 0q0.09375 1.59375 0.90625 2.453125q0.8125 0.8437462 2.015625 0.8437462q0.90625 0 1.546875 -0.46875q0.640625 -0.4843712 1.015625 -1.5156212zm-5.390625 -2.65625l5.40625 0q-0.109375 -1.21875 -0.625 -1.828125q-0.78125 -0.953125 -2.03125 -0.953125q-1.125 0 -1.90625 0.765625q-0.765625 0.75 -0.84375 2.015625zm15.453857 4.578121q-0.921875 0.765625 -1.765625 1.09375q-0.828125 0.3125 -1.796875 0.3125q-1.59375 0 -2.453125 -0.78125q-0.859375 -0.78125 -0.859375 -1.9843712q0 -0.71875 0.328125 -1.296875q0.328125 -0.59375 0.84375 -0.9375q0.53125 -0.359375 1.1875 -0.546875q0.46875 -0.125 1.453125 -0.25q1.984375 -0.234375 2.921875 -0.5625q0.015625 -0.34375 0.015625 -0.421875q0 -1.0 -0.46875 -1.421875q-0.625 -0.546875 -1.875 -0.546875q-1.15625 0 -1.703125 0.40625q-0.546875 0.40625 -0.8125 1.421875l-1.609375 -0.21875q0.21875 -1.015625 0.71875 -1.640625q0.5 -0.640625 1.453125 -0.984375q0.953125 -0.34375 2.1875 -0.34375q1.25 0 2.015625 0.296875q0.78125 0.28125 1.140625 0.734375q0.375 0.4375 0.515625 1.109375q0.078125 0.421875 0.078125 1.515625l0 2.1875q0 2.28125 0.109375 2.8906212q0.109375 0.59375 0.40625 1.15625l-1.703125 0q-0.265625 -0.515625 -0.328125 -1.1875zm-0.140625 -3.6718712q-0.890625 0.375 -2.671875 0.625q-1.015625 0.140625 -1.4375 0.328125q-0.421875 0.1875 -0.65625 0.53125q-0.21875 0.34375 -0.21875 0.78125q0 0.65625 0.5 1.0937462q0.5 0.4375 1.453125 0.4375q0.9375 0 1.671875 -0.40625q0.75 -0.4218712 1.09375 -1.1406212q0.265625 -0.5625 0.265625 -1.640625l0 -0.609375zm10.469482 4.859371l0 -1.21875q-0.90625 1.4375 -2.703125 1.4375q-1.15625 0 -2.125 -0.640625q-0.96875 -0.640625 -1.5 -1.7812462q-0.53125 -1.140625 -0.53125 -2.625q0 -1.453125 0.484375 -2.625q0.484375 -1.1875 1.4375 -1.8125q0.96875 -0.625 2.171875 -0.625q0.875 0 1.546875 0.375q0.6875 0.359375 1.109375 0.953125l0 -4.796875l1.640625 0l0 13.359371l-1.53125 0zm-5.171875 -4.828121q0 1.859375 0.78125 2.78125q0.78125 0.9218712 1.84375 0.9218712q1.078125 0 1.828125 -0.8749962q0.75 -0.890625 0.75 -2.6875q0 -1.984375 -0.765625 -2.90625q-0.765625 -0.9375 -1.890625 -0.9375q-1.078125 0 -1.8125 0.890625q-0.734375 0.890625 -0.734375 2.8125zm8.625732 1.9375l1.625 -0.25q0.125 0.96875 0.75 1.4999962q0.625 0.515625 1.75 0.515625q1.125 0 1.671875 -0.453125q0.546875 -0.4687462 0.546875 -1.0937462q0 -0.546875 -0.484375 -0.875q-0.328125 -0.21875 -1.671875 -0.546875q-1.8125 -0.46875 -2.515625 -0.796875q-0.6875 -0.328125 -1.046875 -0.90625q-0.359375 -0.59375 -0.359375 -1.3125q0 -0.640625 0.296875 -1.1875q0.296875 -0.5625 0.8125 -0.921875q0.375 -0.28125 1.03125 -0.46875q0.671875 -0.203125 1.421875 -0.203125q1.140625 0 2.0 0.328125q0.859375 0.328125 1.265625 0.890625q0.421875 0.5625 0.578125 1.5l-1.609375 0.21875q-0.109375 -0.75 -0.640625 -1.171875q-0.515625 -0.421875 -1.46875 -0.421875q-1.140625 0 -1.625 0.375q-0.46875 0.375 -0.46875 0.875q0 0.3125 0.1875 0.578125q0.203125 0.265625 0.640625 0.4375q0.234375 0.09375 1.4375 0.421875q1.75 0.453125 2.4375 0.75q0.6875 0.296875 1.078125 0.859375q0.390625 0.5625 0.390625 1.40625q0 0.828125 -0.484375 1.5468712q-0.46875 0.71875 -1.375 1.125q-0.90625 0.390625 -2.046875 0.390625q-1.875 0 -2.875 -0.78125q-0.984375 -0.78125 -1.25 -2.3281212z" fill-rule="nonzero"/><path fill="#000000" d="m521.3763 103.37575l1.609375 0.21875q-0.265625 1.65625 -1.359375 2.609375q-1.078125 0.9375 -2.671875 0.9375q-1.984375 0 -3.1875 -1.296875q-1.203125 -1.296875 -1.203125 -3.71875q0 -1.578125 0.515625 -2.75q0.515625 -1.171875 1.578125 -1.75q1.0625 -0.59375 2.3125 -0.59375q1.578125 0 2.578125 0.796875q1.0 0.796875 1.28125 2.265625l-1.59375 0.234375q-0.234375 -0.96875 -0.8125 -1.453125q-0.578125 -0.5 -1.390625 -0.5q-1.234375 0 -2.015625 0.890625q-0.78125 0.890625 -0.78125 2.8125q0 1.953125 0.75 2.84375q0.75 0.875 1.953125 0.875q0.96875 0 1.609375 -0.59375q0.65625 -0.59375 0.828125 -1.828125zm3.015625 3.546875l0 -13.359375l1.640625 0l0 4.796875q1.140625 -1.328125 2.890625 -1.328125q1.078125 0 1.859375 0.421875q0.796875 0.421875 1.140625 1.171875q0.34375 0.75 0.34375 2.171875l0 6.125l-1.640625 0l0 -6.125q0 -1.234375 -0.53125 -1.796875q-0.53125 -0.5625 -1.515625 -0.5625q-0.71875 0 -1.359375 0.390625q-0.640625 0.375 -0.921875 1.015625q-0.265625 0.640625 -0.265625 1.78125l0 5.296875l-1.640625 0zm10.360107 0l0 -9.671875l1.46875 0l0 1.46875q0.5625 -1.03125 1.03125 -1.359375q0.484375 -0.328125 1.0625 -0.328125q0.828125 0 1.6875 0.53125l-0.5625 1.515625q-0.609375 -0.359375 -1.203125 -0.359375q-0.546875 0 -0.96875 0.328125q-0.421875 0.328125 -0.609375 0.890625q-0.28125 0.875 -0.28125 1.921875l0 5.0625l-1.625 0zm6.7282715 0l0 -13.359375l1.765625 0l0 13.359375l-1.765625 0z" fill-rule="nonzero"/><path fill="#000000" d="m658.6408 106.92262l-1.640625 0l0 -10.453125q-0.59375 0.5625 -1.5625 1.140625q-0.953125 0.5625 -1.71875 0.84375l0 -1.59375q1.375 -0.640625 2.40625 -1.5625q1.03125 -0.921875 1.453125 -1.78125l1.0625 0l0 13.40625z" fill-rule="nonzero"/><path fill="#000000" d="m795.5772 106.92262l0 -3.203125l-5.796875 0l0 -1.5l6.09375 -8.65625l1.34375 0l0 8.65625l1.796875 0l0 1.5l-1.796875 0l0 3.203125l-1.640625 0zm0 -4.703125l0 -6.015625l-4.1875 6.015625l4.1875 0z" fill-rule="nonzero"/><path fill="#000000" d="m521.3763 144.97154l1.609375 0.21875q-0.265625 1.65625 -1.359375 2.609375q-1.078125 0.9375 -2.671875 0.9375q-1.984375 0 -3.1875 -1.296875q-1.203125 -1.296875 -1.203125 -3.71875q0 -1.578125 0.515625 -2.75q0.515625 -1.171875 1.578125 -1.75q1.0625 -0.59375 2.3125 -0.59375q1.578125 0 2.578125 0.796875q1.0 0.796875 1.28125 2.265625l-1.59375 0.234375q-0.234375 -0.96875 -0.8125 -1.453125q-0.578125 -0.5 -1.390625 -0.5q-1.234375 0 -2.015625 0.890625q-0.78125 0.890625 -0.78125 2.8125q0 1.953125 0.75 2.84375q0.75 0.875 1.953125 0.875q0.96875 0 1.609375 -0.59375q0.65625 -0.59375 0.828125 -1.828125zm3.015625 3.546875l0 -13.359375l1.640625 0l0 4.796875q1.140625 -1.328125 2.890625 -1.328125q1.078125 0 1.859375 0.421875q0.796875 0.421875 1.140625 1.171875q0.34375 0.75 0.34375 2.171875l0 6.125l-1.640625 0l0 -6.125q0 -1.234375 -0.53125 -1.796875q-0.53125 -0.5625 -1.515625 -0.5625q-0.71875 0 -1.359375 0.390625q-0.640625 0.375 -0.921875 1.015625q-0.265625 0.640625 -0.265625 1.78125l0 5.296875l-1.640625 0zm10.360107 0l0 -9.671875l1.46875 0l0 1.46875q0.5625 -1.03125 1.03125 -1.359375q0.484375 -0.328125 1.0625 -0.328125q0.828125 0 1.6875 0.53125l-0.5625 1.515625q-0.609375 -0.359375 -1.203125 -0.359375q-0.546875 0 -0.96875 0.328125q-0.421875 0.328125 -0.609375 0.890625q-0.28125 0.875 -0.28125 1.921875l0 5.0625l-1.625 0zm6.7282715 0l0 -13.359375l1.765625 0l0 13.359375l-1.765625 0z" fill-rule="nonzero"/><path fill="#000000" d="m661.0783 146.94029l0 1.578125l-8.828125 0q-0.015625 -0.59375 0.1875 -1.140625q0.34375 -0.90625 1.078125 -1.78125q0.75 -0.875 2.15625 -2.015625q2.171875 -1.78125 2.9375 -2.828125q0.765625 -1.046875 0.765625 -1.96875q0 -0.984375 -0.703125 -1.640625q-0.6875 -0.671875 -1.8125 -0.671875q-1.1875 0 -1.90625 0.71875q-0.703125 0.703125 -0.703125 1.953125l-1.6875 -0.171875q0.171875 -1.890625 1.296875 -2.875q1.140625 -0.984375 3.03125 -0.984375q1.921875 0 3.046875 1.0625q1.125 1.0625 1.125 2.640625q0 0.796875 -0.328125 1.578125q-0.328125 0.78125 -1.09375 1.640625q-0.75 0.84375 -2.53125 2.34375q-1.46875 1.234375 -1.890625 1.6875q-0.421875 0.4375 -0.6875 0.875l6.546875 0z" fill-rule="nonzero"/><path fill="#000000" d="m795.5772 148.51842l0 -3.203125l-5.796875 0l0 -1.5l6.09375 -8.65625l1.34375 0l0 8.65625l1.796875 0l0 1.5l-1.796875 0l0 3.203125l-1.640625 0zm0 -4.703125l0 -6.015625l-4.1875 6.015625l4.1875 0z" fill-rule="nonzero"/><path fill="#000000" d="m521.3763 186.1684l1.609375 0.21875q-0.265625 1.65625 -1.359375 2.609375q-1.078125 0.9375 -2.671875 0.9375q-1.984375 0 -3.1875 -1.296875q-1.203125 -1.296875 -1.203125 -3.71875q0 -1.578125 0.515625 -2.75q0.515625 -1.171875 1.578125 -1.75q1.0625 -0.59375 2.3125 -0.59375q1.578125 0 2.578125 0.796875q1.0 0.796875 1.28125 2.265625l-1.59375 0.234375q-0.234375 -0.96875 -0.8125 -1.453125q-0.578125 -0.5 -1.390625 -0.5q-1.234375 0 -2.015625 0.890625q-0.78125 0.890625 -0.78125 2.8125q0 1.953125 0.75 2.84375q0.75 0.875 1.953125 0.875q0.96875 0 1.609375 -0.59375q0.65625 -0.59375 0.828125 -1.828125zm3.015625 3.546875l0 -13.359375l1.640625 0l0 4.796875q1.140625 -1.328125 2.890625 -1.328125q1.078125 0 1.859375 0.421875q0.796875 0.421875 1.140625 1.171875q0.34375 0.75 0.34375 2.171875l0 6.125l-1.640625 0l0 -6.125q0 -1.234375 -0.53125 -1.796875q-0.53125 -0.5625 -1.515625 -0.5625q-0.71875 0 -1.359375 0.390625q-0.640625 0.375 -0.921875 1.015625q-0.265625 0.640625 -0.265625 1.78125l0 5.296875l-1.640625 0zm10.360107 0l0 -9.671875l1.46875 0l0 1.46875q0.5625 -1.03125 1.03125 -1.359375q0.484375 -0.328125 1.0625 -0.328125q0.828125 0 1.6875 0.53125l-0.5625 1.515625q-0.609375 -0.359375 -1.203125 -0.359375q-0.546875 0 -0.96875 0.328125q-0.421875 0.328125 -0.609375 0.890625q-0.28125 0.875 -0.28125 1.921875l0 5.0625l-1.625 0zm6.7282715 0l0 -13.359375l1.765625 0l0 13.359375l-1.765625 0z" fill-rule="nonzero"/><path fill="#000000" d="m652.46893 186.18402l1.640625 -0.21875q0.28125 1.40625 0.953125 2.015625q0.6875 0.609375 1.65625 0.609375q1.15625 0 1.953125 -0.796875q0.796875 -0.796875 0.796875 -1.984375q0 -1.125 -0.734375 -1.859375q-0.734375 -0.734375 -1.875 -0.734375q-0.46875 0 -1.15625 0.171875l0.1875 -1.4375q0.15625 0.015625 0.265625 0.015625q1.046875 0 1.875 -0.546875q0.84375 -0.546875 0.84375 -1.671875q0 -0.90625 -0.609375 -1.5q-0.609375 -0.59375 -1.578125 -0.59375q-0.953125 0 -1.59375 0.609375q-0.640625 0.59375 -0.8125 1.796875l-1.640625 -0.296875q0.296875 -1.640625 1.359375 -2.546875q1.0625 -0.90625 2.65625 -0.90625q1.09375 0 2.0 0.46875q0.921875 0.46875 1.40625 1.28125q0.5 0.8125 0.5 1.71875q0 0.859375 -0.46875 1.578125q-0.46875 0.703125 -1.375 1.125q1.1875 0.28125 1.84375 1.140625q0.65625 0.859375 0.65625 2.15625q0 1.734375 -1.28125 2.953125q-1.265625 1.21875 -3.21875 1.21875q-1.765625 0 -2.921875 -1.046875q-1.15625 -1.046875 -1.328125 -2.71875z" fill-rule="nonzero"/><path fill="#000000" d="m790.4366 178.1059l0 -1.578125l8.640625 0l0 1.28125q-1.28125 1.359375 -2.53125 3.609375q-1.25 2.25 -1.9375 4.625q-0.484375 1.671875 -0.625 3.671875l-1.6875 0q0.03125 -1.578125 0.625 -3.8125q0.59375 -2.234375 1.6875 -4.296875q1.109375 -2.078125 2.359375 -3.5l-6.53125 0z" fill-rule="nonzero"/><path fill="#000000" d="m521.3763 227.36525l1.609375 0.21875q-0.265625 1.65625 -1.359375 2.609375q-1.078125 0.9375 -2.671875 0.9375q-1.984375 0 -3.1875 -1.296875q-1.203125 -1.296875 -1.203125 -3.71875q0 -1.578125 0.515625 -2.75q0.515625 -1.171875 1.578125 -1.75q1.0625 -0.59375 2.3125 -0.59375q1.578125 0 2.578125 0.796875q1.0 0.796875 1.28125 2.265625l-1.59375 0.234375q-0.234375 -0.96875 -0.8125 -1.453125q-0.578125 -0.5 -1.390625 -0.5q-1.234375 0 -2.015625 0.890625q-0.78125 0.890625 -0.78125 2.8125q0 1.953125 0.75 2.84375q0.75 0.875 1.953125 0.875q0.96875 0 1.609375 -0.59375q0.65625 -0.59375 0.828125 -1.828125zm3.015625 3.546875l0 -13.359375l1.640625 0l0 4.796875q1.140625 -1.328125 2.890625 -1.328125q1.078125 0 1.859375 0.421875q0.796875 0.421875 1.140625 1.171875q0.34375 0.75 0.34375 2.171875l0 6.125l-1.640625 0l0 -6.125q0 -1.234375 -0.53125 -1.796875q-0.53125 -0.5625 -1.515625 -0.5625q-0.71875 0 -1.359375 0.390625q-0.640625 0.375 -0.921875 1.015625q-0.265625 0.640625 -0.265625 1.78125l0 5.296875l-1.640625 0zm10.360107 0l0 -9.671875l1.46875 0l0 1.46875q0.5625 -1.03125 1.03125 -1.359375q0.484375 -0.328125 1.0625 -0.328125q0.828125 0 1.6875 0.53125l-0.5625 1.515625q-0.609375 -0.359375 -1.203125 -0.359375q-0.546875 0 -0.96875 0.328125q-0.421875 0.328125 -0.609375 0.890625q-0.28125 0.875 -0.28125 1.921875l0 5.0625l-1.625 0zm6.7282715 0l0 -13.359375l1.765625 0l0 13.359375l-1.765625 0z" fill-rule="nonzero"/><path fill="#000000" d="m657.71893 230.91212l0 -3.203125l-5.796875 0l0 -1.5l6.09375 -8.65625l1.34375 0l0 8.65625l1.796875 0l0 1.5l-1.796875 0l0 3.203125l-1.640625 0zm0 -4.703125l0 -6.015625l-4.1875 6.015625l4.1875 0z" fill-rule="nonzero"/><path fill="#000000" d="m790.4366 219.30275l0 -1.578125l8.640625 0l0 1.28125q-1.28125 1.359375 -2.53125 3.609375q-1.25 2.25 -1.9375 4.625q-0.484375 1.671875 -0.625 3.671875l-1.6875 0q0.03125 -1.578125 0.625 -3.8125q0.59375 -2.234375 1.6875 -4.296875q1.109375 -2.078125 2.359375 -3.5l-6.53125 0z" fill-rule="nonzero"/><path fill="#000000" fill-opacity="0.0" d="m41.595802 38.805775l382.64566 0l0 206.3937l-382.64566 0z" fill-rule="evenodd"/><path stroke="#666666" stroke-width="3.0" stroke-linejoin="round" stroke-linecap="butt" d="m41.595802 38.805775l382.64566 0l0 206.3937l-382.64566 0z" fill-rule="evenodd"/><path fill="#000000" d="m52.252052 54.085148l2.03125 0l1.578125 4.0q0.09375 0.203125 0.09375 0.328125q0 0.1875 -0.140625 0.328125q-0.140625 0.140625 -0.34375 0.140625q-0.265625 0 -0.5 -0.375l-2.71875 -4.421875zm4.015625 0l2.015625 0l1.59375 4.0q0.078125 0.203125 0.078125 0.328125q0 0.1875 -0.140625 0.328125q-0.125 0.140625 -0.328125 0.140625q-0.265625 0 -0.5 -0.375l-2.71875 -4.421875zm14.85498 1.859375l0 -0.546875q0 -0.28125 0.109375 -0.40625q0.109375 -0.125 0.28125 -0.125q0.171875 0 0.28125 0.125q0.109375 0.125 0.109375 0.40625l0 2.15625q0 0.28125 -0.109375 0.40625q-0.109375 0.125 -0.28125 0.125q-0.15625 0 -0.265625 -0.109375q-0.109375 -0.125 -0.125 -0.375q-0.046875 -0.765625 -0.84375 -1.375q-1.078125 -0.828125 -2.453125 -0.828125q-0.890625 0 -1.6875 0.40625q-0.59375 0.28125 -0.953125 0.703125q-0.609375 0.71875 -0.96875 1.609375q-0.265625 0.640625 -0.265625 1.453125l0 1.375q0 1.734375 1.265625 3.03125q1.265625 1.2812462 2.9375 1.2812462q1.0 0 1.78125 -0.4375q0.796875 -0.4375 1.546875 -1.3281212q0.15625 -0.1875 0.34375 -0.1875q0.171875 0 0.265625 0.109375q0.109375 0.09375 0.109375 0.25q0 0.21875 -0.390625 0.6562462q-0.765625 0.84375 -1.71875 1.28125q-0.953125 0.4375 -1.921875 0.4375q-0.84375 0 -1.71875 -0.328125q-0.671875 -0.25 -1.109375 -0.578125q-0.4375 -0.34375 -1.078125 -1.1406212q-0.625 -0.796875 -0.859375 -1.46875q-0.234375 -0.671875 -0.234375 -1.46875l0 -1.59375q0 -1.140625 0.609375 -2.34375q0.625 -1.203125 1.703125 -1.84375q1.078125 -0.65625 2.328125 -0.65625q1.921875 0 3.3125 1.328125zm5.4174805 -1.859375l0 4.796875q0.734375 -0.8125 1.40625 -1.140625q0.6875 -0.328125 1.546875 -0.328125q0.90625 0 1.53125 0.328125q0.640625 0.3125 1.0625 0.984375q0.4375 0.65625 0.4375 1.390625l0 4.828121l0.859375 0q0.296875 0 0.40625 0.109375q0.125 0.109375 0.125 0.28125q0 0.171875 -0.125 0.28125q-0.109375 0.109375 -0.40625 0.109375l-2.53125 0q-0.28125 0 -0.40625 -0.109375q-0.109375 -0.109375 -0.109375 -0.28125q0 -0.171875 0.109375 -0.28125q0.125 -0.109375 0.40625 -0.109375l0.875 0l0 -4.781246q0 -0.84375 -0.609375 -1.40625q-0.609375 -0.5625 -1.6875 -0.5625q-0.859375 0 -1.453125 0.421875q-0.4375 0.296875 -1.4375 1.390625l0 4.937496l0.875 0q0.28125 0 0.390625 0.109375q0.125 0.109375 0.125 0.28125q0 0.171875 -0.125 0.28125q-0.109375 0.109375 -0.390625 0.109375l-2.546875 0q-0.265625 0 -0.390625 -0.109375q-0.125 -0.109375 -0.125 -0.28125q0 -0.171875 0.125 -0.28125q0.125 -0.109375 0.390625 -0.109375l0.890625 0l0 -10.078121l-1.046875 0q-0.28125 0 -0.40625 -0.109375q-0.125 -0.109375 -0.125 -0.28125q0 -0.171875 0.125 -0.28125q0.125 -0.109375 0.40625 -0.109375l1.828125 0zm13.026855 3.609375l0 1.96875q1.53125 -1.375 2.28125 -1.765625q0.75 -0.40625 1.390625 -0.40625q0.703125 0 1.296875 0.46875q0.59375 0.46875 0.59375 0.71875q0 0.171875 -0.109375 0.296875q-0.109375 0.109375 -0.296875 0.109375q-0.09375 0 -0.15625 -0.03125q-0.0625 -0.03125 -0.234375 -0.21875q-0.328125 -0.3125 -0.578125 -0.4375q-0.234375 -0.125 -0.46875 -0.125q-0.5 0 -1.21875 0.40625q-0.71875 0.40625 -2.5 2.0l0 4.265621l3.453125 0q0.28125 0 0.40625 0.109375q0.125 0.109375 0.125 0.28125q0 0.171875 -0.125 0.28125q-0.125 0.109375 -0.40625 0.109375l-6.109375 0q-0.28125 0 -0.40625 -0.109375q-0.109375 -0.109375 -0.109375 -0.265625q0 -0.15625 0.109375 -0.265625q0.109375 -0.109375 0.40625 -0.109375l1.875 0l0 -6.499996l-1.4375 0q-0.28125 0 -0.40625 -0.109375q-0.109375 -0.109375 -0.109375 -0.28125q0 -0.171875 0.109375 -0.28125q0.125 -0.109375 0.40625 -0.109375l2.21875 0zm16.69873 4.03125q0 1.78125 -1.28125 3.0468712q-1.28125 1.265625 -3.078125 1.265625q-1.8125 0 -3.09375 -1.265625q-1.265625 -1.2812462 -1.265625 -3.0468712q0 -1.78125 1.265625 -3.046875q1.28125 -1.265625 3.09375 -1.265625q1.796875 0 3.078125 1.265625q1.28125 1.25 1.28125 3.046875zm-0.796875 0q0 -1.46875 -1.046875 -2.5q-1.03125 -1.03125 -2.515625 -1.03125q-1.484375 0 -2.53125 1.046875q-1.046875 1.03125 -1.046875 2.484375q0 1.453125 1.046875 2.4999962q1.046875 1.03125 2.53125 1.03125q1.484375 0 2.515625 -1.03125q1.046875 -1.0468712 1.046875 -2.4999962zm4.2924805 -4.03125l0 0.78125q0.984375 -1.0625 1.984375 -1.0625q0.609375 0 1.0625 0.328125q0.453125 0.3125 0.765625 0.96875q0.515625 -0.65625 1.046875 -0.96875q0.53125 -0.328125 1.078125 -0.328125q0.84375 0 1.34375 0.546875q0.65625 0.703125 0.65625 1.546875l0 5.437496l0.65625 0q0.28125 0 0.390625 0.109375q0.125 0.109375 0.125 0.28125q0 0.171875 -0.125 0.28125q-0.109375 0.109375 -0.390625 0.109375l-1.4375 0l0 -6.156246q0 -0.59375 -0.359375 -0.984375q-0.359375 -0.390625 -0.828125 -0.390625q-0.4375 0 -0.90625 0.328125q-0.46875 0.3125 -1.078125 1.25l0 5.171871l0.65625 0q0.265625 0 0.390625 0.109375q0.125 0.109375 0.125 0.28125q0 0.171875 -0.125 0.28125q-0.125 0.109375 -0.390625 0.109375l-1.4375 0l0 -6.093746q0 -0.625 -0.375 -1.03125q-0.359375 -0.40625 -0.8125 -0.40625q-0.421875 0 -0.828125 0.28125q-0.5625 0.375 -1.1875 1.296875l0 5.171871l0.65625 0q0.28125 0 0.390625 0.109375q0.125 0.109375 0.125 0.28125q0 0.171875 -0.125 0.28125q-0.109375 0.109375 -0.390625 0.109375l-2.09375 0q-0.28125 0 -0.40625 -0.109375q-0.125 -0.109375 -0.125 -0.28125q0 -0.171875 0.125 -0.28125q0.125 -0.109375 0.40625 -0.109375l0.65625 0l0 -6.468746l-0.65625 0q-0.28125 0 -0.40625 -0.109375q-0.125 -0.109375 -0.125 -0.28125q0 -0.171875 0.125 -0.28125q0.125 -0.109375 0.40625 -0.109375l1.4375 0zm19.308098 4.03125q0 1.78125 -1.2812424 3.0468712q-1.28125 1.265625 -3.078125 1.265625q-1.8125 0 -3.09375 -1.265625q-1.265625 -1.2812462 -1.265625 -3.0468712q0 -1.78125 1.265625 -3.046875q1.28125 -1.265625 3.09375 -1.265625q1.796875 0 3.078125 1.265625q1.2812424 1.25 1.2812424 3.046875zm-0.796875 0q0 -1.46875 -1.0468674 -2.5q-1.03125 -1.03125 -2.515625 -1.03125q-1.484375 0 -2.53125 1.046875q-1.046875 1.03125 -1.046875 2.484375q0 1.453125 1.046875 2.4999962q1.046875 1.03125 2.53125 1.03125q1.484375 0 2.515625 -1.03125q1.0468674 -1.0468712 1.0468674 -2.4999962zm10.41748 -3.53125q0 -0.265625 0.109375 -0.375q0.109375 -0.125 0.28125 -0.125q0.171875 0 0.28125 0.125q0.109375 0.109375 0.109375 0.40625l0 1.328125q0 0.28125 -0.109375 0.40625q-0.109375 0.109375 -0.28125 0.109375q-0.171875 0 -0.28125 -0.09375q-0.09375 -0.109375 -0.109375 -0.34375q-0.0625 -0.546875 -0.578125 -0.90625q-0.765625 -0.53125 -2.015625 -0.53125q-1.3125 0 -2.03125 0.53125q-0.546875 0.40625 -0.546875 0.890625q0 0.5625 0.640625 0.9375q0.453125 0.25 1.703125 0.390625q1.609375 0.171875 2.25 0.40625q0.890625 0.328125 1.328125 0.90625q0.453125 0.5625 0.453125 1.234375q0 0.9843712 -0.953125 1.7656212q-0.953125 0.78125 -2.8125 0.78125q-1.84375 0 -3.015625 -0.9375q0 0.3125 -0.046875 0.40625q-0.03125 0.09375 -0.125 0.15625q-0.09375 0.0625 -0.21875 0.0625q-0.171875 0 -0.28125 -0.109375q-0.109375 -0.125 -0.109375 -0.40625l0 -1.6093712q0 -0.28125 0.109375 -0.390625q0.109375 -0.125 0.28125 -0.125q0.171875 0 0.28125 0.125q0.109375 0.109375 0.109375 0.296875q0 0.421875 0.21875 0.7187462q0.328125 0.4375 1.03125 0.734375q0.71875 0.296875 1.75 0.296875q1.515625 0 2.25 -0.5625q0.75 -0.578125 0.75 -1.2031212q0 -0.71875 -0.75 -1.15625q-0.765625 -0.4375 -2.21875 -0.578125q-1.453125 -0.15625 -2.078125 -0.390625q-0.625 -0.25 -0.984375 -0.734375q-0.359375 -0.484375 -0.359375 -1.03125q0 -1.015625 0.984375 -1.59375q0.984375 -0.59375 2.359375 -0.59375q1.609375 0 2.625 0.78125zm13.183105 3.53125q0 1.78125 -1.28125 3.0468712q-1.28125 1.265625 -3.078125 1.265625q-1.8125 0 -3.09375 -1.265625q-1.265625 -1.2812462 -1.265625 -3.0468712q0 -1.78125 1.265625 -3.046875q1.28125 -1.265625 3.09375 -1.265625q1.796875 0 3.078125 1.265625q1.28125 1.25 1.28125 3.046875zm-0.796875 0q0 -1.46875 -1.046875 -2.5q-1.03125 -1.03125 -2.515625 -1.03125q-1.484375 0 -2.53125 1.046875q-1.046875 1.03125 -1.046875 2.484375q0 1.453125 1.046875 2.4999962q1.046875 1.03125 2.53125 1.03125q1.484375 0 2.515625 -1.03125q1.046875 -1.0468712 1.046875 -2.4999962zm4.2924805 -4.03125l0 0.78125q0.984375 -1.0625 1.984375 -1.0625q0.609375 0 1.0625 0.328125q0.453125 0.3125 0.765625 0.96875q0.515625 -0.65625 1.046875 -0.96875q0.53125 -0.328125 1.078125 -0.328125q0.84375 0 1.34375 0.546875q0.65625 0.703125 0.65625 1.546875l0 5.437496l0.65625 0q0.28125 0 0.390625 0.109375q0.125 0.109375 0.125 0.28125q0 0.171875 -0.125 0.28125q-0.109375 0.109375 -0.390625 0.109375l-1.4375 0l0 -6.156246q0 -0.59375 -0.359375 -0.984375q-0.359375 -0.390625 -0.828125 -0.390625q-0.4375 0 -0.90625 0.328125q-0.46875 0.3125 -1.078125 1.25l0 5.171871l0.65625 0q0.265625 0 0.390625 0.109375q0.125 0.109375 0.125 0.28125q0 0.171875 -0.125 0.28125q-0.125 0.109375 -0.390625 0.109375l-1.4375 0l0 -6.093746q0 -0.625 -0.375 -1.03125q-0.359375 -0.40625 -0.8125 -0.40625q-0.421875 0 -0.828125 0.28125q-0.5625 0.375 -1.1875 1.296875l0 5.171871l0.65625 0q0.28125 0 0.390625 0.109375q0.125 0.109375 0.125 0.28125q0 0.171875 -0.125 0.28125q-0.109375 0.109375 -0.390625 0.109375l-2.09375 0q-0.28125 0 -0.40625 -0.109375q-0.125 -0.109375 -0.125 -0.28125q0 -0.171875 0.125 -0.28125q0.125 -0.109375 0.40625 -0.109375l0.65625 0l0 -6.468746l-0.65625 0q-0.28125 0 -0.40625 -0.109375q-0.125 -0.109375 -0.125 -0.28125q0 -0.171875 0.125 -0.28125q0.125 -0.109375 0.40625 -0.109375l1.4375 0zm19.16748 4.203125l-7.953125 0q0.21875 1.515625 1.28125 2.4374962q1.0625 0.921875 2.625 0.921875q0.875 0 1.828125 -0.28125q0.953125 -0.296875 1.5625 -0.765625q0.171875 -0.140625 0.296875 -0.140625q0.15625 0 0.265625 0.125q0.109375 0.109375 0.109375 0.265625q0 0.15625 -0.15625 0.296875q-0.4375 0.46875 -1.578125 0.875q-1.140625 0.40625 -2.328125 0.40625q-2.0 0 -3.34375 -1.3125q-1.34375 -1.3124962 -1.34375 -3.1874962q0 -1.6875 1.25 -2.90625q1.265625 -1.21875 3.125 -1.21875q1.90625 0 3.140625 1.25q1.234375 1.25 1.21875 3.234375zm-0.796875 -0.796875q-0.234375 -1.28125 -1.21875 -2.09375q-0.984375 -0.8125 -2.34375 -0.8125q-1.375 0 -2.359375 0.8125q-0.96875 0.796875 -1.21875 2.09375l7.140625 0zm5.9956055 -7.015625l2.0 0l-2.71875 4.421875q-0.21875 0.375 -0.5 0.375q-0.1875 0 -0.328125 -0.140625q-0.140625 -0.140625 -0.140625 -0.328125q0 -0.125 0.078125 -0.328125l1.609375 -4.0zm4.0 0l2.015625 0l-2.71875 4.421875q-0.21875 0.375 -0.5 0.375q-0.203125 0 -0.34375 -0.140625q-0.125 -0.140625 -0.125 -0.328125q0 -0.125 0.078125 -0.328125l1.59375 -4.0zm9.214355 3.609375l0.34375 0q0.515625 0 0.875 0.375q0.375 0.359375 0.375 0.875q0 0.546875 -0.375 0.90625q-0.359375 0.359375 -0.875 0.359375l-0.34375 0q-0.515625 0 -0.890625 -0.359375q-0.359375 -0.375 -0.359375 -0.890625q0 -0.546875 0.375 -0.90625q0.375 -0.359375 0.875 -0.359375zm-1.359375 5.234375l2.453125 0l-2.625 4.296871q-0.203125 0.3125 -0.3125 0.390625q-0.109375 0.09375 -0.265625 0.09375q-0.234375 0 -0.390625 -0.140625q-0.140625 -0.140625 -0.140625 -0.328125q0 -0.109375 0.0625 -0.296875l1.21875 -4.015621zm8.88623 -8.84375l2.03125 0l1.578125 4.0q0.09375 0.203125 0.09375 0.328125q0 0.1875 -0.140625 0.328125q-0.140625 0.140625 -0.34375 0.140625q-0.265625 0 -0.5 -0.375l-2.71875 -4.421875zm4.015625 0l2.015625 0l1.59375 4.0q0.078125 0.203125 0.078125 0.328125q0 0.1875 -0.140625 0.328125q-0.125 0.140625 -0.328125 0.140625q-0.265625 0 -0.5 -0.375l-2.71875 -4.421875zm9.745605 7.1875l0 3.6718712l2.671875 0q0.265625 0 0.390625 0.109375q0.125 0.109375 0.125 0.28125q0 0.171875 -0.125 0.28125q-0.125 0.109375 -0.390625 0.109375l-4.5 0q-0.28125 0 -0.40625 -0.109375q-0.125 -0.109375 -0.125 -0.28125q0 -0.171875 0.125 -0.28125q0.125 -0.109375 0.40625 -0.109375l1.046875 0l0 -9.296871l-1.046875 0q-0.28125 0 -0.40625 -0.09375q-0.125 -0.109375 -0.125 -0.296875q0 -0.171875 0.125 -0.28125q0.125 -0.109375 0.40625 -0.109375l4.515625 0q1.609375 0 2.625 0.953125q1.015625 0.9375 1.015625 2.21875q0 0.75 -0.328125 1.359375q-0.328125 0.59375 -0.796875 0.9375q-0.6875 0.515625 -1.4375 0.765625q-0.53125 0.171875 -1.328125 0.171875l-2.4375 0zm0 -0.78125l2.484375 0q0.859375 0 1.609375 -0.375q0.765625 -0.390625 1.109375 -0.9375q0.34375 -0.5625 0.34375 -1.140625q0 -0.921875 -0.796875 -1.65625q-0.78125 -0.734375 -1.984375 -0.734375l-2.765625 0l0 4.84375zm17.44873 1.234375q0 1.78125 -1.28125 3.0468712q-1.28125 1.265625 -3.078125 1.265625q-1.8125 0 -3.09375 -1.265625q-1.265625 -1.2812462 -1.265625 -3.0468712q0 -1.78125 1.265625 -3.046875q1.28125 -1.265625 3.09375 -1.265625q1.796875 0 3.078125 1.265625q1.28125 1.25 1.28125 3.046875zm-0.796875 0q0 -1.46875 -1.046875 -2.5q-1.03125 -1.03125 -2.515625 -1.03125q-1.484375 0 -2.53125 1.046875q-1.046875 1.03125 -1.046875 2.484375q0 1.453125 1.046875 2.4999962q1.046875 1.03125 2.53125 1.03125q1.484375 0 2.515625 -1.03125q1.046875 -1.0468712 1.046875 -2.4999962zm10.41748 -3.53125q0 -0.265625 0.109375 -0.375q0.109375 -0.125 0.28125 -0.125q0.171875 0 0.28125 0.125q0.109375 0.109375 0.109375 0.40625l0 1.328125q0 0.28125 -0.109375 0.40625q-0.109375 0.109375 -0.28125 0.109375q-0.171875 0 -0.28125 -0.09375q-0.09375 -0.109375 -0.109375 -0.34375q-0.0625 -0.546875 -0.578125 -0.90625q-0.765625 -0.53125 -2.015625 -0.53125q-1.3125 0 -2.03125 0.53125q-0.546875 0.40625 -0.546875 0.890625q0 0.5625 0.640625 0.9375q0.453125 0.25 1.703125 0.390625q1.609375 0.171875 2.25 0.40625q0.890625 0.328125 1.328125 0.90625q0.453125 0.5625 0.453125 1.234375q0 0.9843712 -0.953125 1.7656212q-0.953125 0.78125 -2.8125 0.78125q-1.84375 0 -3.015625 -0.9375q0 0.3125 -0.046875 0.40625q-0.03125 0.09375 -0.125 0.15625q-0.09375 0.0625 -0.21875 0.0625q-0.171875 0 -0.28125 -0.109375q-0.109375 -0.125 -0.109375 -0.40625l0 -1.6093712q0 -0.28125 0.109375 -0.390625q0.109375 -0.125 0.28125 -0.125q0.171875 0 0.28125 0.125q0.109375 0.109375 0.109375 0.296875q0 0.421875 0.21875 0.7187462q0.328125 0.4375 1.03125 0.734375q0.71875 0.296875 1.75 0.296875q1.515625 0 2.25 -0.5625q0.75 -0.578125 0.75 -1.2031212q0 -0.71875 -0.75 -1.15625q-0.765625 -0.4375 -2.21875 -0.578125q-1.453125 -0.15625 -2.078125 -0.390625q-0.625 -0.25 -0.984375 -0.734375q-0.359375 -0.484375 -0.359375 -1.03125q0 -1.015625 0.984375 -1.59375q0.984375 -0.59375 2.359375 -0.59375q1.609375 0 2.625 0.78125zm9.214355 -4.5l0 2.015625l-1.15625 0l0 -2.015625l1.15625 0zm0.015625 4.0l0 7.249996l3.0625 0q0.296875 0 0.40625 0.109375q0.125 0.109375 0.125 0.28125q0 0.171875 -0.125 0.28125q-0.109375 0.109375 -0.40625 0.109375l-6.90625 0q-0.265625 0 -0.390625 -0.109375q-0.125 -0.109375 -0.125 -0.28125q0 -0.171875 0.125 -0.28125q0.125 -0.109375 0.390625 -0.109375l3.0625 0l0 -6.468746l-2.265625 0q-0.28125 0 -0.40625 -0.109375q-0.125 -0.109375 -0.125 -0.28125q0 -0.171875 0.125 -0.28125q0.125 -0.109375 0.40625 -0.109375l3.046875 0zm9.38623 0l4.234375 0q0.28125 0 0.390625 0.109375q0.125 0.109375 0.125 0.28125q0 0.171875 -0.125 0.28125q-0.109375 0.109375 -0.390625 0.109375l-4.234375 0l0 5.1875q0 0.6874962 0.546875 1.1406212q0.546875 0.453125 1.59375 0.453125q0.78125 0 1.703125 -0.234375q0.921875 -0.25 1.4375 -0.546875q0.1875 -0.109375 0.296875 -0.109375q0.15625 0 0.265625 0.125q0.109375 0.109375 0.109375 0.265625q0 0.140625 -0.125 0.25q-0.296875 0.3125 -1.4375 0.671875q-1.140625 0.359375 -2.1875 0.359375q-1.375 0 -2.1875 -0.640625q-0.796875 -0.640625 -0.796875 -1.7343712l0 -5.1875l-1.4375 0q-0.28125 0 -0.40625 -0.109375q-0.109375 -0.109375 -0.109375 -0.28125q0 -0.171875 0.109375 -0.28125q0.125 -0.109375 0.40625 -0.109375l1.4375 0l0 -2.296875q0 -0.28125 0.109375 -0.40625q0.109375 -0.125 0.28125 -0.125q0.171875 0 0.28125 0.125q0.109375 0.125 0.109375 0.40625l0 2.296875zm13.401855 -4.0l0 2.015625l-1.15625 0l0 -2.015625l1.15625 0zm0.015625 4.0l0 7.249996l3.0625 0q0.296875 0 0.40625 0.109375q0.125 0.109375 0.125 0.28125q0 0.171875 -0.125 0.28125q-0.109375 0.109375 -0.40625 0.109375l-6.90625 0q-0.265625 0 -0.390625 -0.109375q-0.125 -0.109375 -0.125 -0.28125q0 -0.171875 0.125 -0.28125q0.125 -0.109375 0.390625 -0.109375l3.0625 0l0 -6.468746l-2.265625 0q-0.28125 0 -0.40625 -0.109375q-0.125 -0.109375 -0.125 -0.28125q0 -0.171875 0.125 -0.28125q0.125 -0.109375 0.40625 -0.109375l3.046875 0zm15.35498 4.03125q0 1.78125 -1.28125 3.0468712q-1.28125 1.265625 -3.078125 1.265625q-1.8125 0 -3.09375 -1.265625q-1.265625 -1.2812462 -1.265625 -3.0468712q0 -1.78125 1.265625 -3.046875q1.28125 -1.265625 3.09375 -1.265625q1.796875 0 3.078125 1.265625q1.28125 1.25 1.28125 3.046875zm-0.796875 0q0 -1.46875 -1.046875 -2.5q-1.03125 -1.03125 -2.515625 -1.03125q-1.484375 0 -2.53125 1.046875q-1.046875 1.03125 -1.046875 2.484375q0 1.453125 1.046875 2.4999962q1.046875 1.03125 2.53125 1.03125q1.484375 0 2.515625 -1.03125q1.046875 -1.0468712 1.046875 -2.4999962zm5.3237305 -4.03125l0 1.171875q0.8125 -0.828125 1.46875 -1.140625q0.65625 -0.3125 1.484375 -0.3125q0.890625 0 1.625 0.375q0.515625 0.28125 0.9375 0.9375q0.421875 0.640625 0.421875 1.3125l0 4.906246l0.65625 0q0.28125 0 0.40625 0.109375q0.125 0.109375 0.125 0.28125q0 0.171875 -0.125 0.28125q-0.125 0.109375 -0.40625 0.109375l-2.078125 0q-0.296875 0 -0.421875 -0.109375q-0.109375 -0.109375 -0.109375 -0.28125q0 -0.171875 0.109375 -0.28125q0.125 -0.109375 0.421875 -0.109375l0.640625 0l0 -4.781246q0 -0.828125 -0.609375 -1.390625q-0.59375 -0.578125 -1.609375 -0.578125q-0.765625 0 -1.328125 0.3125q-0.5625 0.3125 -1.609375 1.546875l0 4.890621l0.875 0q0.28125 0 0.390625 0.109375q0.125 0.109375 0.125 0.28125q0 0.171875 -0.125 0.28125q-0.109375 0.109375 -0.390625 0.109375l-2.546875 0q-0.265625 0 -0.390625 -0.109375q-0.125 -0.109375 -0.125 -0.28125q0 -0.171875 0.125 -0.28125q0.125 -0.109375 0.390625 -0.109375l0.890625 0l0 -6.468746l-0.65625 0q-0.28125 0 -0.40625 -0.109375q-0.125 -0.109375 -0.125 -0.28125q0 -0.171875 0.125 -0.28125q0.125 -0.109375 0.40625 -0.109375l1.4375 0zm11.933105 -3.609375l2.0 0l-2.71875 4.421875q-0.21875 0.375 -0.5 0.375q-0.1875 0 -0.328125 -0.140625q-0.140625 -0.140625 -0.140625 -0.328125q0 -0.125 0.078125 -0.328125l1.609375 -4.0zm4.0 0l2.015625 0l-2.71875 4.421875q-0.21875 0.375 -0.5 0.375q-0.203125 0 -0.34375 -0.140625q-0.125 -0.140625 -0.125 -0.328125q0 -0.125 0.078125 -0.328125l1.59375 -4.0zm9.214355 3.609375l0.34375 0q0.515625 0 0.875 0.375q0.375 0.359375 0.375 0.875q0 0.546875 -0.375 0.90625q-0.359375 0.359375 -0.875 0.359375l-0.34375 0q-0.515625 0 -0.890625 -0.359375q-0.359375 -0.375 -0.359375 -0.890625q0 -0.546875 0.375 -0.90625q0.375 -0.359375 0.875 -0.359375zm-1.359375 5.234375l2.453125 0l-2.625 4.296871q-0.203125 0.3125 -0.3125 0.390625q-0.109375 0.09375 -0.265625 0.09375q-0.234375 0 -0.390625 -0.140625q-0.140625 -0.140625 -0.140625 -0.328125q0 -0.109375 0.0625 -0.296875l1.21875 -4.015621zm8.88623 -8.84375l2.03125 0l1.578125 4.0q0.09375 0.203125 0.09375 0.328125q0 0.1875 -0.140625 0.328125q-0.140625 0.140625 -0.34375 0.140625q-0.265625 0 -0.5 -0.375l-2.71875 -4.421875zm4.015625 0l2.015625 0l1.59375 4.0q0.078125 0.203125 0.078125 0.328125q0 0.1875 -0.140625 0.328125q-0.125 0.140625 -0.328125 0.140625q-0.265625 0 -0.5 -0.375l-2.71875 -4.421875zm8.88623 6.796875l0 4.062496l1.453125 0q0.28125 0 0.390625 0.109375q0.125 0.109375 0.125 0.28125q0 0.171875 -0.125 0.28125q-0.109375 0.109375 -0.390625 0.109375l-3.265625 0q-0.28125 0 -0.40625 -0.109375q-0.125 -0.109375 -0.125 -0.28125q0 -0.171875 0.125 -0.28125q0.125 -0.109375 0.40625 -0.109375l1.046875 0l0 -9.296871l-1.046875 0q-0.28125 0 -0.40625 -0.09375q-0.125 -0.109375 -0.125 -0.296875q0 -0.171875 0.125 -0.28125q0.125 -0.109375 0.40625 -0.109375l4.703125 0q1.453125 0 2.453125 0.921875q1.0 0.921875 1.0 2.09375q0 0.828125 -0.625 1.578125q-0.609375 0.734375 -2.0625 1.21875q0.84375 0.578125 1.4375 1.296875q0.59375 0.71875 1.90625 2.9687462l0.59375 0q0.265625 0 0.390625 0.109375q0.125 0.109375 0.125 0.28125q0 0.171875 -0.125 0.28125q-0.125 0.109375 -0.390625 0.109375l-1.046875 0q-1.453125 -2.5937462 -2.25 -3.4687462q-0.78125 -0.875 -1.8125 -1.375l-2.484375 0zm0 -0.78125l2.125 0q1.03125 0 1.859375 -0.359375q0.828125 -0.375 1.203125 -0.875q0.375 -0.5 0.375 -1.03125q0 -0.78125 -0.78125 -1.484375q-0.78125 -0.703125 -1.90625 -0.703125l-2.875 0l0 4.453125zm18.16748 1.796875l-7.953125 0q0.21875 1.515625 1.28125 2.4374962q1.0625 0.921875 2.625 0.921875q0.875 0 1.828125 -0.28125q0.953125 -0.296875 1.5625 -0.765625q0.171875 -0.140625 0.296875 -0.140625q0.15625 0 0.265625 0.125q0.109375 0.109375 0.109375 0.265625q0 0.15625 -0.15625 0.296875q-0.4375 0.46875 -1.578125 0.875q-1.140625 0.40625 -2.328125 0.40625q-2.0 0 -3.34375 -1.3125q-1.34375 -1.3124962 -1.34375 -3.1874962q0 -1.6875 1.25 -2.90625q1.265625 -1.21875 3.125 -1.21875q1.90625 0 3.140625 1.25q1.234375 1.25 1.21875 3.234375zm-0.796875 -0.796875q-0.234375 -1.28125 -1.21875 -2.09375q-0.984375 -0.8125 -2.34375 -0.8125q-1.375 0 -2.359375 0.8125q-0.96875 0.796875 -1.21875 2.09375l7.140625 0zm10.214355 4.624996l0 -1.125q-1.6875 1.4375 -3.625 1.4375q-1.40625 0 -2.1875 -0.703125q-0.78125 -0.71875 -0.78125 -1.7499962q0 -1.140625 1.03125 -1.984375q1.046875 -0.84375 3.03125 -0.84375q0.546875 0 1.171875 0.078125q0.625 0.0625 1.359375 0.21875l0 -1.265625q0 -0.640625 -0.59375 -1.109375q-0.59375 -0.484375 -1.78125 -0.484375q-0.90625 0 -2.546875 0.53125q-0.296875 0.09375 -0.375 0.09375q-0.15625 0 -0.265625 -0.109375q-0.109375 -0.109375 -0.109375 -0.28125q0 -0.15625 0.09375 -0.25q0.140625 -0.140625 1.0625 -0.375q1.4375 -0.390625 2.1875 -0.390625q1.46875 0 2.296875 0.734375q0.828125 0.71875 0.828125 1.640625l0 5.156246l1.03125 0q0.296875 0 0.40625 0.109375q0.125 0.109375 0.125 0.28125q0 0.171875 -0.125 0.28125q-0.109375 0.109375 -0.40625 0.109375l-1.828125 0zm0 -3.8749962q-0.546875 -0.15625 -1.15625 -0.234375q-0.609375 -0.078125 -1.28125 -0.078125q-1.703125 0 -2.65625 0.734375q-0.734375 0.546875 -0.734375 1.3125q0 0.7031212 0.546875 1.1874962q0.5625 0.484375 1.625 0.484375q1.0 0 1.859375 -0.40625q0.875 -0.40625 1.796875 -1.2812462l0 -1.71875zm12.97998 -7.765625l0 10.859371l1.046875 0q0.28125 0 0.40625 0.109375q0.125 0.109375 0.125 0.28125q0 0.171875 -0.125 0.28125q-0.125 0.109375 -0.40625 0.109375l-1.828125 0l0 -1.546875q-1.359375 1.859375 -3.453125 1.859375q-1.046875 0 -2.015625 -0.5625q-0.96875 -0.5625 -1.53125 -1.5937462q-0.5625 -1.046875 -0.5625 -2.15625q0 -1.109375 0.5625 -2.140625q0.5625 -1.046875 1.53125 -1.609375q0.96875 -0.5625 2.03125 -0.5625q2.046875 0 3.4375 1.859375l0 -4.40625l-1.046875 0q-0.28125 0 -0.40625 -0.109375q-0.125 -0.109375 -0.125 -0.28125q0 -0.171875 0.125 -0.28125q0.125 -0.109375 0.40625 -0.109375l1.828125 0zm-0.78125 7.640625q0 -1.484375 -1.015625 -2.5q-1.0 -1.03125 -2.375 -1.03125q-1.390625 0 -2.390625 1.03125q-1.0 1.015625 -1.0 2.5q0 1.46875 1.0 2.4999962q1.0 1.03125 2.390625 1.03125q1.375 0 2.375 -1.03125q1.015625 -1.0312462 1.015625 -2.4999962zm10.94873 -3.53125q0 -0.265625 0.109375 -0.375q0.109375 -0.125 0.28125 -0.125q0.171875 0 0.28125 0.125q0.109375 0.109375 0.109375 0.40625l0 1.328125q0 0.28125 -0.109375 0.40625q-0.109375 0.109375 -0.28125 0.109375q-0.171875 0 -0.28125 -0.09375q-0.09375 -0.109375 -0.109375 -0.34375q-0.0625 -0.546875 -0.578125 -0.90625q-0.765625 -0.53125 -2.015625 -0.53125q-1.3125 0 -2.03125 0.53125q-0.546875 0.40625 -0.546875 0.890625q0 0.5625 0.640625 0.9375q0.453125 0.25 1.703125 0.390625q1.609375 0.171875 2.25 0.40625q0.890625 0.328125 1.328125 0.90625q0.453125 0.5625 0.453125 1.234375q0 0.9843712 -0.953125 1.7656212q-0.953125 0.78125 -2.8125 0.78125q-1.84375 0 -3.015625 -0.9375q0 0.3125 -0.046875 0.40625q-0.03125 0.09375 -0.125 0.15625q-0.09375 0.0625 -0.21875 0.0625q-0.171875 0 -0.28125 -0.109375q-0.109375 -0.125 -0.109375 -0.40625l0 -1.6093712q0 -0.28125 0.109375 -0.390625q0.109375 -0.125 0.28125 -0.125q0.171875 0 0.28125 0.125q0.109375 0.109375 0.109375 0.296875q0 0.421875 0.21875 0.7187462q0.328125 0.4375 1.03125 0.734375q0.71875 0.296875 1.75 0.296875q1.515625 0 2.25 -0.5625q0.75 -0.578125 0.75 -1.2031212q0 -0.71875 -0.75 -1.15625q-0.765625 -0.4375 -2.21875 -0.578125q-1.453125 -0.15625 -2.078125 -0.390625q-0.625 -0.25 -0.984375 -0.734375q-0.359375 -0.484375 -0.359375 -1.03125q0 -1.015625 0.984375 -1.59375q0.984375 -0.59375 2.359375 -0.59375q1.609375 0 2.625 0.78125zm6.8393555 -4.109375l2.0 0l-2.71875 4.421875q-0.21875 0.375 -0.5 0.375q-0.1875 0 -0.328125 -0.140625q-0.140625 -0.140625 -0.140625 -0.328125q0 -0.125 0.078125 -0.328125l1.609375 -4.0zm4.0 0l2.015625 0l-2.71875 4.421875q-0.21875 0.375 -0.5 0.375q-0.203125 0 -0.34375 -0.140625q-0.125 -0.140625 -0.125 -0.328125q0 -0.125 0.078125 -0.328125l1.59375 -4.0z" fill-rule="nonzero"/><path fill="#000000" d="m52.252052 76.085144l2.03125 0l1.578125 4.0q0.09375 0.203125 0.09375 0.328125q0 0.1875 -0.140625 0.328125q-0.140625 0.140625 -0.34375 0.140625q-0.265625 0 -0.5 -0.375l-2.71875 -4.421875zm4.015625 0l2.015625 0l1.59375 4.0q0.078125 0.203125 0.078125 0.328125q0 0.1875 -0.140625 0.328125q-0.125 0.140625 -0.328125 0.140625q-0.265625 0 -0.5 -0.375l-2.71875 -4.421875zm14.683105 4.390625l0 -0.25q0 -0.296875 0.109375 -0.40625q0.109375 -0.125 0.28125 -0.125q0.171875 0 0.28125 0.125q0.109375 0.109375 0.109375 0.40625l0 1.75q0 0.296875 -0.109375 0.421875q-0.109375 0.109375 -0.28125 0.109375q-0.15625 0 -0.265625 -0.09375q-0.109375 -0.109375 -0.125 -0.359375q-0.0625 -0.671875 -0.875 -1.265625q-0.796875 -0.59375 -2.171875 -0.59375q-1.734375 0 -2.640625 1.09375q-0.90625 1.078125 -0.90625 2.484375q0 1.515625 0.984375 2.5q1.0 0.984375 2.578125 0.984375q0.921875 0 1.859375 -0.328125q0.9375 -0.34375 1.703125 -1.09375q0.1875 -0.171875 0.34375 -0.171875q0.15625 0 0.265625 0.109375q0.109375 0.09375 0.109375 0.25q0 0.40625 -0.9375 1.015625q-1.515625 1.0 -3.375 1.0q-1.875 0 -3.09375 -1.203125q-1.203125 -1.203125 -1.203125 -3.046875q0 -1.890625 1.234375 -3.125q1.234375 -1.25 3.125 -1.25q1.78125 0 3.0 1.0625zm5.5893555 -4.390625l0 4.796875q0.734375 -0.8125 1.40625 -1.140625q0.6875 -0.328125 1.546875 -0.328125q0.90625 0 1.53125 0.328125q0.640625 0.3125 1.0625 0.984375q0.4375 0.65625 0.4375 1.390625l0 4.828125l0.859375 0q0.296875 0 0.40625 0.109375q0.125 0.109375 0.125 0.28125q0 0.171875 -0.125 0.28125q-0.109375 0.109375 -0.40625 0.109375l-2.53125 0q-0.28125 0 -0.40625 -0.109375q-0.109375 -0.109375 -0.109375 -0.28125q0 -0.171875 0.109375 -0.28125q0.125 -0.109375 0.40625 -0.109375l0.875 0l0 -4.78125q0 -0.84375 -0.609375 -1.40625q-0.609375 -0.5625 -1.6875 -0.5625q-0.859375 0 -1.453125 0.421875q-0.4375 0.296875 -1.4375 1.390625l0 4.9375l0.875 0q0.28125 0 0.390625 0.109375q0.125 0.109375 0.125 0.28125q0 0.171875 -0.125 0.28125q-0.109375 0.109375 -0.390625 0.109375l-2.546875 0q-0.265625 0 -0.390625 -0.109375q-0.125 -0.109375 -0.125 -0.28125q0 -0.171875 0.125 -0.28125q0.125 -0.109375 0.390625 -0.109375l0.890625 0l0 -10.078125l-1.046875 0q-0.28125 0 -0.40625 -0.109375q-0.125 -0.109375 -0.125 -0.28125q0 -0.171875 0.125 -0.28125q0.125 -0.109375 0.40625 -0.109375l1.828125 0zm13.026855 3.609375l0 1.96875q1.53125 -1.375 2.28125 -1.765625q0.75 -0.40625 1.390625 -0.40625q0.703125 0 1.296875 0.46875q0.59375 0.46875 0.59375 0.71875q0 0.171875 -0.109375 0.296875q-0.109375 0.109375 -0.296875 0.109375q-0.09375 0 -0.15625 -0.03125q-0.0625 -0.03125 -0.234375 -0.21875q-0.328125 -0.3125 -0.578125 -0.4375q-0.234375 -0.125 -0.46875 -0.125q-0.5 0 -1.21875 0.40625q-0.71875 0.40625 -2.5 2.0l0 4.265625l3.453125 0q0.28125 0 0.40625 0.109375q0.125 0.109375 0.125 0.28125q0 0.171875 -0.125 0.28125q-0.125 0.109375 -0.40625 0.109375l-6.109375 0q-0.28125 0 -0.40625 -0.109375q-0.109375 -0.109375 -0.109375 -0.265625q0 -0.15625 0.109375 -0.265625q0.109375 -0.109375 0.40625 -0.109375l1.875 0l0 -6.5l-1.4375 0q-0.28125 0 -0.40625 -0.109375q-0.109375 -0.109375 -0.109375 -0.28125q0 -0.171875 0.109375 -0.28125q0.125 -0.109375 0.40625 -0.109375l2.21875 0zm12.72998 -2.046875l0 9.296875l2.671875 0q0.28125 0 0.390625 0.109375q0.125 0.109375 0.125 0.28125q0 0.171875 -0.125 0.28125q-0.109375 0.109375 -0.390625 0.109375l-6.125 0q-0.28125 0 -0.40625 -0.109375q-0.109375 -0.109375 -0.109375 -0.28125q0 -0.171875 0.109375 -0.28125q0.125 -0.109375 0.40625 -0.109375l2.671875 0l0 -9.296875l-2.671875 0q-0.28125 0 -0.40625 -0.09375q-0.109375 -0.109375 -0.109375 -0.296875q0 -0.171875 0.109375 -0.28125q0.125 -0.109375 0.40625 -0.109375l6.125 0q0.28125 0 0.390625 0.109375q0.125 0.109375 0.125 0.28125q0 0.1875 -0.125 0.296875q-0.109375 0.09375 -0.390625 0.09375l-2.671875 0zm9.026855 -1.5625l2.0 0l-2.71875 4.421875q-0.21875 0.375 -0.5 0.375q-0.1875 0 -0.328125 -0.140625q-0.140625 -0.140625 -0.140625 -0.328125q0 -0.125 0.078125 -0.328125l1.609375 -4.0zm4.0 0l2.015625 0l-2.71875 4.421875q-0.21875 0.375 -0.5 0.375q-0.203125 0 -0.34375 -0.140625q-0.125 -0.140625 -0.125 -0.328125q0 -0.125 0.078125 -0.328125l1.59375 -4.0zm9.214355 3.609375l0.34375 0q0.515625 0 0.875 0.375q0.375 0.359375 0.375 0.875q0 0.546875 -0.375 0.90625q-0.359375 0.359375 -0.875 0.359375l-0.34375 0q-0.515625 0 -0.890625 -0.359375q-0.359375 -0.375 -0.359375 -0.890625q0 -0.546875 0.375 -0.90625q0.375 -0.359375 0.875 -0.359375zm-1.359375 5.234375l2.453125 0l-2.625 4.296875q-0.203125 0.3125 -0.3125 0.390625q-0.109375 0.09375 -0.265625 0.09375q-0.234375 0 -0.390625 -0.140625q-0.140625 -0.140625 -0.140625 -0.328125q0 -0.109375 0.0625 -0.296875l1.21875 -4.015625zm8.886223 -8.84375l2.03125 0l1.578125 4.0q0.09375 0.203125 0.09375 0.328125q0 0.1875 -0.140625 0.328125q-0.140625 0.140625 -0.34375 0.140625q-0.265625 0 -0.5 -0.375l-2.71875 -4.421875zm4.015625 0l2.015625 0l1.59375 4.0q0.078125 0.203125 0.078125 0.328125q0 0.1875 -0.140625 0.328125q-0.125 0.140625 -0.328125 0.140625q-0.265625 0 -0.5 -0.375l-2.71875 -4.421875zm11.82373 -0.15625l0 11.015625l2.671875 0q0.265625 0 0.390625 0.109375q0.125 0.109375 0.125 0.28125q0 0.171875 -0.125 0.28125q-0.125 0.109375 -0.390625 0.109375l-6.125 0q-0.28125 0 -0.40625 -0.109375q-0.125 -0.109375 -0.125 -0.28125q0 -0.171875 0.125 -0.28125q0.125 -0.109375 0.40625 -0.109375l2.671875 0l0 -9.9375l-2.546875 0.796875q-0.1875 0.046875 -0.265625 0.046875q-0.140625 0 -0.265625 -0.109375q-0.109375 -0.125 -0.109375 -0.28125q0 -0.140625 0.09375 -0.25q0.078125 -0.078125 0.3125 -0.15625l3.5625 -1.125zm9.026855 0.15625l2.0 0l-2.71875 4.421875q-0.21875 0.375 -0.5 0.375q-0.1875 0 -0.328125 -0.140625q-0.140625 -0.140625 -0.140625 -0.328125q0 -0.125 0.078125 -0.328125l1.609375 -4.0zm4.0 0l2.015625 0l-2.71875 4.421875q-0.21875 0.375 -0.5 0.375q-0.203125 0 -0.34375 -0.140625q-0.125 -0.140625 -0.125 -0.328125q0 -0.125 0.078125 -0.328125l1.59375 -4.0zm9.214355 3.609375l0.34375 0q0.515625 0 0.875 0.375q0.375 0.359375 0.375 0.875q0 0.546875 -0.375 0.90625q-0.359375 0.359375 -0.875 0.359375l-0.34375 0q-0.515625 0 -0.890625 -0.359375q-0.359375 -0.375 -0.359375 -0.890625q0 -0.546875 0.375 -0.90625q0.375 -0.359375 0.875 -0.359375zm-1.359375 5.234375l2.453125 0l-2.625 4.296875q-0.203125 0.3125 -0.3125 0.390625q-0.109375 0.09375 -0.265625 0.09375q-0.234375 0 -0.390625 -0.140625q-0.140625 -0.140625 -0.140625 -0.328125q0 -0.109375 0.0625 -0.296875l1.21875 -4.015625zm8.88623 -8.84375l2.03125 0l1.578125 4.0q0.09375 0.203125 0.09375 0.328125q0 0.1875 -0.140625 0.328125q-0.140625 0.140625 -0.34375 0.140625q-0.265625 0 -0.5 -0.375l-2.71875 -4.421875zm4.015625 0l2.015625 0l1.59375 4.0q0.078125 0.203125 0.078125 0.328125q0 0.1875 -0.140625 0.328125q-0.125 0.140625 -0.328125 0.140625q-0.265625 0 -0.5 -0.375l-2.71875 -4.421875zm12.88623 8.390625l-5.171875 0l0 -0.90625l4.328125 -7.484375l1.625 0l0 7.609375l0.65625 0q0.28125 0 0.40625 0.109375q0.125 0.09375 0.125 0.28125q0 0.15625 -0.125 0.28125q-0.125 0.109375 -0.40625 0.109375l-0.65625 0l0 2.46875l0.65625 0q0.28125 0 0.40625 0.109375q0.125 0.109375 0.125 0.28125q0 0.171875 -0.125 0.28125q-0.125 0.109375 -0.40625 0.109375l-2.890625 0q-0.296875 0 -0.421875 -0.109375q-0.109375 -0.109375 -0.109375 -0.28125q0 -0.171875 0.109375 -0.28125q0.125 -0.109375 0.421875 -0.109375l1.453125 0l0 -2.46875zm0 -0.78125l0 -6.828125l-0.40625 0l-3.953125 6.828125l4.359375 0zm7.9643555 -7.609375l2.0 0l-2.71875 4.421875q-0.21875 0.375 -0.5 0.375q-0.1875 0 -0.328125 -0.140625q-0.140625 -0.140625 -0.140625 -0.328125q0 -0.125 0.078125 -0.328125l1.609375 -4.0zm4.0 0l2.015625 0l-2.71875 4.421875q-0.21875 0.375 -0.5 0.375q-0.203125 0 -0.34375 -0.140625q-0.125 -0.140625 -0.125 -0.328125q0 -0.125 0.078125 -0.328125l1.59375 -4.0z" fill-rule="nonzero"/><path fill="#000000" d="m52.252052 98.085144l2.03125 0l1.578125 4.0q0.09375 0.203125 0.09375 0.328125q0 0.1875 -0.140625 0.328125q-0.140625 0.140625 -0.34375 0.140625q-0.265625 0 -0.5 -0.375l-2.71875 -4.421875zm4.015625 0l2.015625 0l1.59375 4.0q0.078125 0.203125 0.078125 0.328125q0 0.1875 -0.140625 0.328125q-0.125 0.140625 -0.328125 0.140625q-0.265625 0 -0.5 -0.375l-2.71875 -4.421875zm14.683105 4.390625l0 -0.25q0 -0.296875 0.109375 -0.40625q0.109375 -0.125 0.28125 -0.125q0.171875 0 0.28125 0.125q0.109375 0.109375 0.109375 0.40625l0 1.75q0 0.296875 -0.109375 0.421875q-0.109375 0.109375 -0.28125 0.109375q-0.15625 0 -0.265625 -0.09375q-0.109375 -0.109375 -0.125 -0.359375q-0.0625 -0.671875 -0.875 -1.265625q-0.796875 -0.59375 -2.171875 -0.59375q-1.734375 0 -2.640625 1.09375q-0.90625 1.078125 -0.90625 2.484375q0 1.515625 0.984375 2.5q1.0 0.984375 2.578125 0.984375q0.921875 0 1.859375 -0.328125q0.9375 -0.34375 1.703125 -1.09375q0.1875 -0.171875 0.34375 -0.171875q0.15625 0 0.265625 0.109375q0.109375 0.09375 0.109375 0.25q0 0.40625 -0.9375 1.015625q-1.515625 1.0 -3.375 1.0q-1.875 0 -3.09375 -1.203125q-1.203125 -1.203125 -1.203125 -3.046875q0 -1.890625 1.234375 -3.125q1.234375 -1.25 3.125 -1.25q1.78125 0 3.0 1.0625zm5.5893555 -4.390625l0 4.796875q0.734375 -0.8125 1.40625 -1.140625q0.6875 -0.328125 1.546875 -0.328125q0.90625 0 1.53125 0.328125q0.640625 0.3125 1.0625 0.984375q0.4375 0.65625 0.4375 1.390625l0 4.828125l0.859375 0q0.296875 0 0.40625 0.109375q0.125 0.109375 0.125 0.28125q0 0.171875 -0.125 0.28125q-0.109375 0.109375 -0.40625 0.109375l-2.53125 0q-0.28125 0 -0.40625 -0.109375q-0.109375 -0.109375 -0.109375 -0.28125q0 -0.171875 0.109375 -0.28125q0.125 -0.109375 0.40625 -0.109375l0.875 0l0 -4.78125q0 -0.84375 -0.609375 -1.40625q-0.609375 -0.5625 -1.6875 -0.5625q-0.859375 0 -1.453125 0.421875q-0.4375 0.296875 -1.4375 1.390625l0 4.9375l0.875 0q0.28125 0 0.390625 0.109375q0.125 0.109375 0.125 0.28125q0 0.171875 -0.125 0.28125q-0.109375 0.109375 -0.390625 0.109375l-2.546875 0q-0.265625 0 -0.390625 -0.109375q-0.125 -0.109375 -0.125 -0.28125q0 -0.171875 0.125 -0.28125q0.125 -0.109375 0.390625 -0.109375l0.890625 0l0 -10.078125l-1.046875 0q-0.28125 0 -0.40625 -0.109375q-0.125 -0.109375 -0.125 -0.28125q0 -0.171875 0.125 -0.28125q0.125 -0.109375 0.40625 -0.109375l1.828125 0zm13.026855 3.609375l0 1.96875q1.53125 -1.375 2.28125 -1.765625q0.75 -0.40625 1.390625 -0.40625q0.703125 0 1.296875 0.46875q0.59375 0.46875 0.59375 0.71875q0 0.171875 -0.109375 0.296875q-0.109375 0.109375 -0.296875 0.109375q-0.09375 0 -0.15625 -0.03125q-0.0625 -0.03125 -0.234375 -0.21875q-0.328125 -0.3125 -0.578125 -0.4375q-0.234375 -0.125 -0.46875 -0.125q-0.5 0 -1.21875 0.40625q-0.71875 0.40625 -2.5 2.0l0 4.265625l3.453125 0q0.28125 0 0.40625 0.109375q0.125 0.109375 0.125 0.28125q0 0.171875 -0.125 0.28125q-0.125 0.109375 -0.40625 0.109375l-6.109375 0q-0.28125 0 -0.40625 -0.109375q-0.109375 -0.109375 -0.109375 -0.265625q0 -0.15625 0.109375 -0.265625q0.109375 -0.109375 0.40625 -0.109375l1.875 0l0 -6.5l-1.4375 0q-0.28125 0 -0.40625 -0.109375q-0.109375 -0.109375 -0.109375 -0.28125q0 -0.171875 0.109375 -0.28125q0.125 -0.109375 0.40625 -0.109375l2.21875 0zm12.72998 -2.046875l0 9.296875l2.671875 0q0.28125 0 0.390625 0.109375q0.125 0.109375 0.125 0.28125q0 0.171875 -0.125 0.28125q-0.109375 0.109375 -0.390625 0.109375l-6.125 0q-0.28125 0 -0.40625 -0.109375q-0.109375 -0.109375 -0.109375 -0.28125q0 -0.171875 0.109375 -0.28125q0.125 -0.109375 0.40625 -0.109375l2.671875 0l0 -9.296875l-2.671875 0q-0.28125 0 -0.40625 -0.09375q-0.109375 -0.109375 -0.109375 -0.296875q0 -0.171875 0.109375 -0.28125q0.125 -0.109375 0.40625 -0.109375l6.125 0q0.28125 0 0.390625 0.109375q0.125 0.109375 0.125 0.28125q0 0.1875 -0.125 0.296875q-0.109375 0.09375 -0.390625 0.09375l-2.671875 0zm9.026855 -1.5625l2.0 0l-2.71875 4.421875q-0.21875 0.375 -0.5 0.375q-0.1875 0 -0.328125 -0.140625q-0.140625 -0.140625 -0.140625 -0.328125q0 -0.125 0.078125 -0.328125l1.609375 -4.0zm4.0 0l2.015625 0l-2.71875 4.421875q-0.21875 0.375 -0.5 0.375q-0.203125 0 -0.34375 -0.140625q-0.125 -0.140625 -0.125 -0.328125q0 -0.125 0.078125 -0.328125l1.59375 -4.0zm9.214355 3.609375l0.34375 0q0.515625 0 0.875 0.375q0.375 0.359375 0.375 0.875q0 0.546875 -0.375 0.90625q-0.359375 0.359375 -0.875 0.359375l-0.34375 0q-0.515625 0 -0.890625 -0.359375q-0.359375 -0.375 -0.359375 -0.890625q0 -0.546875 0.375 -0.90625q0.375 -0.359375 0.875 -0.359375zm-1.359375 5.234375l2.453125 0l-2.625 4.296875q-0.203125 0.3125 -0.3125 0.390625q-0.109375 0.09375 -0.265625 0.09375q-0.234375 0 -0.390625 -0.140625q-0.140625 -0.140625 -0.140625 -0.328125q0 -0.109375 0.0625 -0.296875l1.21875 -4.015625zm8.886223 -8.84375l2.03125 0l1.578125 4.0q0.09375 0.203125 0.09375 0.328125q0 0.1875 -0.140625 0.328125q-0.140625 0.140625 -0.34375 0.140625q-0.265625 0 -0.5 -0.375l-2.71875 -4.421875zm4.015625 0l2.015625 0l1.59375 4.0q0.078125 0.203125 0.078125 0.328125q0 0.1875 -0.140625 0.328125q-0.125 0.140625 -0.328125 0.140625q-0.265625 0 -0.5 -0.375l-2.71875 -4.421875zm8.07373 10.859375l5.984375 0l0 -0.296875q0 -0.28125 0.109375 -0.40625q0.109375 -0.125 0.296875 -0.125q0.15625 0 0.265625 0.125q0.125 0.125 0.125 0.40625l0 1.078125l-7.53125 0l0 -1.15625q2.375 -2.125 4.609375 -4.34375q1.046875 -1.015625 1.4375 -1.5q0.390625 -0.484375 0.53125 -0.84375q0.15625 -0.375 0.15625 -0.75q0 -1.0 -0.8125 -1.765625q-0.8125 -0.78125 -1.953125 -0.78125q-1.015625 0 -1.8125 0.59375q-0.78125 0.578125 -1.015625 1.453125q-0.046875 0.21875 -0.140625 0.28125q-0.109375 0.09375 -0.25 0.09375q-0.15625 0 -0.265625 -0.109375q-0.109375 -0.109375 -0.109375 -0.25q0 -0.453125 0.484375 -1.203125q0.484375 -0.765625 1.34375 -1.203125q0.859375 -0.4375 1.765625 -0.4375q1.453125 0 2.5 1.015625q1.046875 1.0 1.046875 2.28125q0 0.546875 -0.171875 1.0q-0.171875 0.4375 -0.609375 0.984375q-0.421875 0.53125 -1.515625 1.609375q-2.734375 2.703125 -4.46875 4.203125l0 0.046875zm12.776855 -10.859375l2.0 0l-2.71875 4.421875q-0.21875 0.375 -0.5 0.375q-0.1875 0 -0.328125 -0.140625q-0.140625 -0.140625 -0.140625 -0.328125q0 -0.125 0.078125 -0.328125l1.609375 -4.0zm4.0 0l2.015625 0l-2.71875 4.421875q-0.21875 0.375 -0.5 0.375q-0.203125 0 -0.34375 -0.140625q-0.125 -0.140625 -0.125 -0.328125q0 -0.125 0.078125 -0.328125l1.59375 -4.0zm9.214355 3.609375l0.34375 0q0.515625 0 0.875 0.375q0.375 0.359375 0.375 0.875q0 0.546875 -0.375 0.90625q-0.359375 0.359375 -0.875 0.359375l-0.34375 0q-0.515625 0 -0.890625 -0.359375q-0.359375 -0.375 -0.359375 -0.890625q0 -0.546875 0.375 -0.90625q0.375 -0.359375 0.875 -0.359375zm-1.359375 5.234375l2.453125 0l-2.625 4.296875q-0.203125 0.3125 -0.3125 0.390625q-0.109375 0.09375 -0.265625 0.09375q-0.234375 0 -0.390625 -0.140625q-0.140625 -0.140625 -0.140625 -0.328125q0 -0.109375 0.0625 -0.296875l1.21875 -4.015625zm8.88623 -8.84375l2.03125 0l1.578125 4.0q0.09375 0.203125 0.09375 0.328125q0 0.1875 -0.140625 0.328125q-0.140625 0.140625 -0.34375 0.140625q-0.265625 0 -0.5 -0.375l-2.71875 -4.421875zm4.015625 0l2.015625 0l1.59375 4.0q0.078125 0.203125 0.078125 0.328125q0 0.1875 -0.140625 0.328125q-0.125 0.140625 -0.328125 0.140625q-0.265625 0 -0.5 -0.375l-2.71875 -4.421875zm12.88623 8.390625l-5.171875 0l0 -0.90625l4.328125 -7.484375l1.625 0l0 7.609375l0.65625 0q0.28125 0 0.40625 0.109375q0.125 0.09375 0.125 0.28125q0 0.15625 -0.125 0.28125q-0.125 0.109375 -0.40625 0.109375l-0.65625 0l0 2.46875l0.65625 0q0.28125 0 0.40625 0.109375q0.125 0.109375 0.125 0.28125q0 0.171875 -0.125 0.28125q-0.125 0.109375 -0.40625 0.109375l-2.890625 0q-0.296875 0 -0.421875 -0.109375q-0.109375 -0.109375 -0.109375 -0.28125q0 -0.171875 0.109375 -0.28125q0.125 -0.109375 0.421875 -0.109375l1.453125 0l0 -2.46875zm0 -0.78125l0 -6.828125l-0.40625 0l-3.953125 6.828125l4.359375 0zm7.9643555 -7.609375l2.0 0l-2.71875 4.421875q-0.21875 0.375 -0.5 0.375q-0.1875 0 -0.328125 -0.140625q-0.140625 -0.140625 -0.140625 -0.328125q0 -0.125 0.078125 -0.328125l1.609375 -4.0zm4.0 0l2.015625 0l-2.71875 4.421875q-0.21875 0.375 -0.5 0.375q-0.203125 0 -0.34375 -0.140625q-0.125 -0.140625 -0.125 -0.328125q0 -0.125 0.078125 -0.328125l1.59375 -4.0z" fill-rule="nonzero"/><path fill="#000000" d="m52.252052 120.085144l2.03125 0l1.578125 4.0q0.09375 0.203125 0.09375 0.328125q0 0.1875 -0.140625 0.328125q-0.140625 0.140625 -0.34375 0.140625q-0.265625 0 -0.5 -0.375l-2.71875 -4.421875zm4.015625 0l2.015625 0l1.59375 4.0q0.078125 0.203125 0.078125 0.328125q0 0.1875 -0.140625 0.328125q-0.125 0.140625 -0.328125 0.140625q-0.265625 0 -0.5 -0.375l-2.71875 -4.421875zm14.683105 4.390625l0 -0.25q0 -0.296875 0.109375 -0.40625q0.109375 -0.125 0.28125 -0.125q0.171875 0 0.28125 0.125q0.109375 0.109375 0.109375 0.40625l0 1.75q0 0.296875 -0.109375 0.421875q-0.109375 0.109375 -0.28125 0.109375q-0.15625 0 -0.265625 -0.09375q-0.109375 -0.109375 -0.125 -0.359375q-0.0625 -0.671875 -0.875 -1.265625q-0.796875 -0.59375 -2.171875 -0.59375q-1.734375 0 -2.640625 1.09375q-0.90625 1.078125 -0.90625 2.484375q0 1.515625 0.984375 2.5q1.0 0.984375 2.578125 0.984375q0.921875 0 1.859375 -0.328125q0.9375 -0.34375 1.703125 -1.09375q0.1875 -0.171875 0.34375 -0.171875q0.15625 0 0.265625 0.109375q0.109375 0.09375 0.109375 0.25q0 0.40625 -0.9375 1.015625q-1.515625 1.0 -3.375 1.0q-1.875 0 -3.09375 -1.203125q-1.203125 -1.203125 -1.203125 -3.046875q0 -1.890625 1.234375 -3.125q1.234375 -1.25 3.125 -1.25q1.78125 0 3.0 1.0625zm5.5893555 -4.390625l0 4.796875q0.734375 -0.8125 1.40625 -1.140625q0.6875 -0.328125 1.546875 -0.328125q0.90625 0 1.53125 0.328125q0.640625 0.3125 1.0625 0.984375q0.4375 0.65625 0.4375 1.390625l0 4.828125l0.859375 0q0.296875 0 0.40625 0.109375q0.125 0.109375 0.125 0.28125q0 0.171875 -0.125 0.28125q-0.109375 0.109375 -0.40625 0.109375l-2.53125 0q-0.28125 0 -0.40625 -0.109375q-0.109375 -0.109375 -0.109375 -0.28125q0 -0.171875 0.109375 -0.28125q0.125 -0.109375 0.40625 -0.109375l0.875 0l0 -4.78125q0 -0.84375 -0.609375 -1.40625q-0.609375 -0.5625 -1.6875 -0.5625q-0.859375 0 -1.453125 0.421875q-0.4375 0.296875 -1.4375 1.390625l0 4.9375l0.875 0q0.28125 0 0.390625 0.109375q0.125 0.109375 0.125 0.28125q0 0.171875 -0.125 0.28125q-0.109375 0.109375 -0.390625 0.109375l-2.546875 0q-0.265625 0 -0.390625 -0.109375q-0.125 -0.109375 -0.125 -0.28125q0 -0.171875 0.125 -0.28125q0.125 -0.109375 0.390625 -0.109375l0.890625 0l0 -10.078125l-1.046875 0q-0.28125 0 -0.40625 -0.109375q-0.125 -0.109375 -0.125 -0.28125q0 -0.171875 0.125 -0.28125q0.125 -0.109375 0.40625 -0.109375l1.828125 0zm13.026855 3.609375l0 1.96875q1.53125 -1.375 2.28125 -1.765625q0.75 -0.40625 1.390625 -0.40625q0.703125 0 1.296875 0.46875q0.59375 0.46875 0.59375 0.71875q0 0.171875 -0.109375 0.296875q-0.109375 0.109375 -0.296875 0.109375q-0.09375 0 -0.15625 -0.03125q-0.0625 -0.03125 -0.234375 -0.21875q-0.328125 -0.3125 -0.578125 -0.4375q-0.234375 -0.125 -0.46875 -0.125q-0.5 0 -1.21875 0.40625q-0.71875 0.40625 -2.5 2.0l0 4.265625l3.453125 0q0.28125 0 0.40625 0.109375q0.125 0.109375 0.125 0.28125q0 0.171875 -0.125 0.28125q-0.125 0.109375 -0.40625 0.109375l-6.109375 0q-0.28125 0 -0.40625 -0.109375q-0.109375 -0.109375 -0.109375 -0.265625q0 -0.15625 0.109375 -0.265625q0.109375 -0.109375 0.40625 -0.109375l1.875 0l0 -6.5l-1.4375 0q-0.28125 0 -0.40625 -0.109375q-0.109375 -0.109375 -0.109375 -0.28125q0 -0.171875 0.109375 -0.28125q0.125 -0.109375 0.40625 -0.109375l2.21875 0zm12.72998 -2.046875l0 9.296875l2.671875 0q0.28125 0 0.390625 0.109375q0.125 0.109375 0.125 0.28125q0 0.171875 -0.125 0.28125q-0.109375 0.109375 -0.390625 0.109375l-6.125 0q-0.28125 0 -0.40625 -0.109375q-0.109375 -0.109375 -0.109375 -0.28125q0 -0.171875 0.109375 -0.28125q0.125 -0.109375 0.40625 -0.109375l2.671875 0l0 -9.296875l-2.671875 0q-0.28125 0 -0.40625 -0.09375q-0.109375 -0.109375 -0.109375 -0.296875q0 -0.171875 0.109375 -0.28125q0.125 -0.109375 0.40625 -0.109375l6.125 0q0.28125 0 0.390625 0.109375q0.125 0.109375 0.125 0.28125q0 0.1875 -0.125 0.296875q-0.109375 0.09375 -0.390625 0.09375l-2.671875 0zm9.026855 -1.5625l2.0 0l-2.71875 4.421875q-0.21875 0.375 -0.5 0.375q-0.1875 0 -0.328125 -0.140625q-0.140625 -0.140625 -0.140625 -0.328125q0 -0.125 0.078125 -0.328125l1.609375 -4.0zm4.0 0l2.015625 0l-2.71875 4.421875q-0.21875 0.375 -0.5 0.375q-0.203125 0 -0.34375 -0.140625q-0.125 -0.140625 -0.125 -0.328125q0 -0.125 0.078125 -0.328125l1.59375 -4.0zm9.214355 3.609375l0.34375 0q0.515625 0 0.875 0.375q0.375 0.359375 0.375 0.875q0 0.546875 -0.375 0.90625q-0.359375 0.359375 -0.875 0.359375l-0.34375 0q-0.515625 0 -0.890625 -0.359375q-0.359375 -0.375 -0.359375 -0.890625q0 -0.546875 0.375 -0.90625q0.375 -0.359375 0.875 -0.359375zm-1.359375 5.234375l2.453125 0l-2.625 4.296875q-0.203125 0.3125 -0.3125 0.390625q-0.109375 0.09375 -0.265625 0.09375q-0.234375 0 -0.390625 -0.140625q-0.140625 -0.140625 -0.140625 -0.328125q0 -0.109375 0.0625 -0.296875l1.21875 -4.015625zm8.886223 -8.84375l2.03125 0l1.578125 4.0q0.09375 0.203125 0.09375 0.328125q0 0.1875 -0.140625 0.328125q-0.140625 0.140625 -0.34375 0.140625q-0.265625 0 -0.5 -0.375l-2.71875 -4.421875zm4.015625 0l2.015625 0l1.59375 4.0q0.078125 0.203125 0.078125 0.328125q0 0.1875 -0.140625 0.328125q-0.125 0.140625 -0.328125 0.140625q-0.265625 0 -0.5 -0.375l-2.71875 -4.421875zm13.026855 5.296875q1.078125 0.484375 1.640625 1.328125q0.578125 0.84375 0.578125 1.75q0 1.40625 -1.140625 2.484375q-1.140625 1.0625 -2.84375 1.0625q-1.0 0 -2.078125 -0.421875q-1.078125 -0.4375 -1.5 -0.875q-0.140625 -0.15625 -0.140625 -0.328125q0 -0.140625 0.09375 -0.25q0.109375 -0.109375 0.265625 -0.109375q0.140625 0 0.328125 0.140625q1.4375 1.0625 3.046875 1.0625q1.359375 0 2.265625 -0.84375q0.921875 -0.859375 0.921875 -1.890625q0 -0.703125 -0.453125 -1.359375q-0.453125 -0.671875 -1.296875 -1.0625q-0.84375 -0.390625 -1.703125 -0.390625q-0.28125 0 -0.40625 -0.09375q-0.109375 -0.109375 -0.109375 -0.28125q0 -0.171875 0.109375 -0.28125q0.109375 -0.109375 0.34375 -0.109375l0.671875 0q1.046875 0 1.71875 -0.640625q0.6875 -0.640625 0.6875 -1.484375q0 -0.875 -0.71875 -1.53125q-0.703125 -0.671875 -1.859375 -0.671875q-0.796875 0 -1.484375 0.28125q-0.671875 0.28125 -1.078125 0.75q-0.15625 0.1875 -0.234375 0.234375q-0.078125 0.046875 -0.171875 0.046875q-0.15625 0 -0.28125 -0.109375q-0.109375 -0.109375 -0.109375 -0.265625q0 -0.359375 0.8125 -0.9375q1.125 -0.78125 2.546875 -0.78125q1.484375 0 2.421875 0.890625q0.953125 0.875 0.953125 2.109375q0 0.78125 -0.453125 1.484375q-0.453125 0.6875 -1.34375 1.09375zm7.8237305 -5.296875l2.0 0l-2.71875 4.421875q-0.21875 0.375 -0.5 0.375q-0.1875 0 -0.328125 -0.140625q-0.140625 -0.140625 -0.140625 -0.328125q0 -0.125 0.078125 -0.328125l1.609375 -4.0zm4.0 0l2.015625 0l-2.71875 4.421875q-0.21875 0.375 -0.5 0.375q-0.203125 0 -0.34375 -0.140625q-0.125 -0.140625 -0.125 -0.328125q0 -0.125 0.078125 -0.328125l1.59375 -4.0zm9.214355 3.609375l0.34375 0q0.515625 0 0.875 0.375q0.375 0.359375 0.375 0.875q0 0.546875 -0.375 0.90625q-0.359375 0.359375 -0.875 0.359375l-0.34375 0q-0.515625 0 -0.890625 -0.359375q-0.359375 -0.375 -0.359375 -0.890625q0 -0.546875 0.375 -0.90625q0.375 -0.359375 0.875 -0.359375zm-1.359375 5.234375l2.453125 0l-2.625 4.296875q-0.203125 0.3125 -0.3125 0.390625q-0.109375 0.09375 -0.265625 0.09375q-0.234375 0 -0.390625 -0.140625q-0.140625 -0.140625 -0.140625 -0.328125q0 -0.109375 0.0625 -0.296875l1.21875 -4.015625zm8.88623 -8.84375l2.03125 0l1.578125 4.0q0.09375 0.203125 0.09375 0.328125q0 0.1875 -0.140625 0.328125q-0.140625 0.140625 -0.34375 0.140625q-0.265625 0 -0.5 -0.375l-2.71875 -4.421875zm4.015625 0l2.015625 0l1.59375 4.0q0.078125 0.203125 0.078125 0.328125q0 0.1875 -0.140625 0.328125q-0.125 0.140625 -0.328125 0.140625q-0.265625 0 -0.5 -0.375l-2.71875 -4.421875zm14.058105 1.140625l0 -0.359375l-5.59375 0l0 0.6875q0 0.28125 -0.109375 0.40625q-0.09375 0.109375 -0.28125 0.109375q-0.15625 0 -0.28125 -0.109375q-0.109375 -0.125 -0.109375 -0.40625l0 -1.46875l7.15625 0l0 1.234375l-3.140625 10.03125q-0.0625 0.234375 -0.171875 0.3125q-0.09375 0.078125 -0.234375 0.078125q-0.15625 0 -0.28125 -0.109375q-0.109375 -0.109375 -0.109375 -0.265625q0 -0.09375 0.0625 -0.25l3.09375 -9.890625zm6.7924805 -1.140625l2.0 0l-2.71875 4.421875q-0.21875 0.375 -0.5 0.375q-0.1875 0 -0.328125 -0.140625q-0.140625 -0.140625 -0.140625 -0.328125q0 -0.125 0.078125 -0.328125l1.609375 -4.0zm4.0 0l2.015625 0l-2.71875 4.421875q-0.21875 0.375 -0.5 0.375q-0.203125 0 -0.34375 -0.140625q-0.125 -0.140625 -0.125 -0.328125q0 -0.125 0.078125 -0.328125l1.59375 -4.0z" fill-rule="nonzero"/><path fill="#000000" d="m52.252052 142.08514l2.03125 0l1.578125 4.0q0.09375 0.203125 0.09375 0.328125q0 0.1875 -0.140625 0.328125q-0.140625 0.140625 -0.34375 0.140625q-0.265625 0 -0.5 -0.375l-2.71875 -4.421875zm4.015625 0l2.015625 0l1.59375 4.0q0.078125 0.203125 0.078125 0.328125q0 0.1875 -0.140625 0.328125q-0.125 0.140625 -0.328125 0.140625q-0.265625 0 -0.5 -0.375l-2.71875 -4.421875zm14.683105 4.390625l0 -0.25q0 -0.296875 0.109375 -0.40625q0.109375 -0.125 0.28125 -0.125q0.171875 0 0.28125 0.125q0.109375 0.109375 0.109375 0.40625l0 1.75q0 0.296875 -0.109375 0.421875q-0.109375 0.109375 -0.28125 0.109375q-0.15625 0 -0.265625 -0.09375q-0.109375 -0.109375 -0.125 -0.359375q-0.0625 -0.671875 -0.875 -1.265625q-0.796875 -0.59375 -2.171875 -0.59375q-1.734375 0 -2.640625 1.09375q-0.90625 1.078125 -0.90625 2.484375q0 1.515625 0.984375 2.5q1.0 0.984375 2.578125 0.984375q0.921875 0 1.859375 -0.328125q0.9375 -0.34375 1.703125 -1.09375q0.1875 -0.171875 0.34375 -0.171875q0.15625 0 0.265625 0.109375q0.109375 0.09375 0.109375 0.25q0 0.40625 -0.9375 1.015625q-1.515625 1.0 -3.375 1.0q-1.875 0 -3.09375 -1.203125q-1.203125 -1.203125 -1.203125 -3.046875q0 -1.890625 1.234375 -3.125q1.234375 -1.25 3.125 -1.25q1.78125 0 3.0 1.0625zm5.5893555 -4.390625l0 4.796875q0.734375 -0.8125 1.40625 -1.140625q0.6875 -0.328125 1.546875 -0.328125q0.90625 0 1.53125 0.328125q0.640625 0.3125 1.0625 0.984375q0.4375 0.65625 0.4375 1.390625l0 4.828125l0.859375 0q0.296875 0 0.40625 0.109375q0.125 0.109375 0.125 0.28125q0 0.171875 -0.125 0.28125q-0.109375 0.109375 -0.40625 0.109375l-2.53125 0q-0.28125 0 -0.40625 -0.109375q-0.109375 -0.109375 -0.109375 -0.28125q0 -0.171875 0.109375 -0.28125q0.125 -0.109375 0.40625 -0.109375l0.875 0l0 -4.78125q0 -0.84375 -0.609375 -1.40625q-0.609375 -0.5625 -1.6875 -0.5625q-0.859375 0 -1.453125 0.421875q-0.4375 0.296875 -1.4375 1.390625l0 4.9375l0.875 0q0.28125 0 0.390625 0.109375q0.125 0.109375 0.125 0.28125q0 0.171875 -0.125 0.28125q-0.109375 0.109375 -0.390625 0.109375l-2.546875 0q-0.265625 0 -0.390625 -0.109375q-0.125 -0.109375 -0.125 -0.28125q0 -0.171875 0.125 -0.28125q0.125 -0.109375 0.390625 -0.109375l0.890625 0l0 -10.078125l-1.046875 0q-0.28125 0 -0.40625 -0.109375q-0.125 -0.109375 -0.125 -0.28125q0 -0.171875 0.125 -0.28125q0.125 -0.109375 0.40625 -0.109375l1.828125 0zm13.026855 3.609375l0 1.96875q1.53125 -1.375 2.28125 -1.765625q0.75 -0.40625 1.390625 -0.40625q0.703125 0 1.296875 0.46875q0.59375 0.46875 0.59375 0.71875q0 0.171875 -0.109375 0.296875q-0.109375 0.109375 -0.296875 0.109375q-0.09375 0 -0.15625 -0.03125q-0.0625 -0.03125 -0.234375 -0.21875q-0.328125 -0.3125 -0.578125 -0.4375q-0.234375 -0.125 -0.46875 -0.125q-0.5 0 -1.21875 0.40625q-0.71875 0.40625 -2.5 2.0l0 4.265625l3.453125 0q0.28125 0 0.40625 0.109375q0.125 0.109375 0.125 0.28125q0 0.171875 -0.125 0.28125q-0.125 0.109375 -0.40625 0.109375l-6.109375 0q-0.28125 0 -0.40625 -0.109375q-0.109375 -0.109375 -0.109375 -0.265625q0 -0.15625 0.109375 -0.265625q0.109375 -0.109375 0.40625 -0.109375l1.875 0l0 -6.5l-1.4375 0q-0.28125 0 -0.40625 -0.109375q-0.109375 -0.109375 -0.109375 -0.28125q0 -0.171875 0.109375 -0.28125q0.125 -0.109375 0.40625 -0.109375l2.21875 0zm12.72998 -2.046875l0 9.296875l2.671875 0q0.28125 0 0.390625 0.109375q0.125 0.109375 0.125 0.28125q0 0.171875 -0.125 0.28125q-0.109375 0.109375 -0.390625 0.109375l-6.125 0q-0.28125 0 -0.40625 -0.109375q-0.109375 -0.109375 -0.109375 -0.28125q0 -0.171875 0.109375 -0.28125q0.125 -0.109375 0.40625 -0.109375l2.671875 0l0 -9.296875l-2.671875 0q-0.28125 0 -0.40625 -0.09375q-0.109375 -0.109375 -0.109375 -0.296875q0 -0.171875 0.109375 -0.28125q0.125 -0.109375 0.40625 -0.109375l6.125 0q0.28125 0 0.390625 0.109375q0.125 0.109375 0.125 0.28125q0 0.1875 -0.125 0.296875q-0.109375 0.09375 -0.390625 0.09375l-2.671875 0zm9.026855 -1.5625l2.0 0l-2.71875 4.421875q-0.21875 0.375 -0.5 0.375q-0.1875 0 -0.328125 -0.140625q-0.140625 -0.140625 -0.140625 -0.328125q0 -0.125 0.078125 -0.328125l1.609375 -4.0zm4.0 0l2.015625 0l-2.71875 4.421875q-0.21875 0.375 -0.5 0.375q-0.203125 0 -0.34375 -0.140625q-0.125 -0.140625 -0.125 -0.328125q0 -0.125 0.078125 -0.328125l1.59375 -4.0zm9.214355 3.609375l0.34375 0q0.515625 0 0.875 0.375q0.375 0.359375 0.375 0.875q0 0.546875 -0.375 0.90625q-0.359375 0.359375 -0.875 0.359375l-0.34375 0q-0.515625 0 -0.890625 -0.359375q-0.359375 -0.375 -0.359375 -0.890625q0 -0.546875 0.375 -0.90625q0.375 -0.359375 0.875 -0.359375zm-1.359375 5.234375l2.453125 0l-2.625 4.296875q-0.203125 0.3125 -0.3125 0.390625q-0.109375 0.09375 -0.265625 0.09375q-0.234375 0 -0.390625 -0.140625q-0.140625 -0.140625 -0.140625 -0.328125q0 -0.109375 0.0625 -0.296875l1.21875 -4.015625zm8.886223 -8.84375l2.03125 0l1.578125 4.0q0.09375 0.203125 0.09375 0.328125q0 0.1875 -0.140625 0.328125q-0.140625 0.140625 -0.34375 0.140625q-0.265625 0 -0.5 -0.375l-2.71875 -4.421875zm4.015625 0l2.015625 0l1.59375 4.0q0.078125 0.203125 0.078125 0.328125q0 0.1875 -0.140625 0.328125q-0.125 0.140625 -0.328125 0.140625q-0.265625 0 -0.5 -0.375l-2.71875 -4.421875zm12.88623 8.390625l-5.171875 0l0 -0.90625l4.328125 -7.484375l1.625 0l0 7.609375l0.65625 0q0.28125 0 0.40625 0.109375q0.125 0.09375 0.125 0.28125q0 0.15625 -0.125 0.28125q-0.125 0.109375 -0.40625 0.109375l-0.65625 0l0 2.46875l0.65625 0q0.28125 0 0.40625 0.109375q0.125 0.109375 0.125 0.28125q0 0.171875 -0.125 0.28125q-0.125 0.109375 -0.40625 0.109375l-2.890625 0q-0.296875 0 -0.421875 -0.109375q-0.109375 -0.109375 -0.109375 -0.28125q0 -0.171875 0.109375 -0.28125q0.125 -0.109375 0.421875 -0.109375l1.453125 0l0 -2.46875zm0 -0.78125l0 -6.828125l-0.40625 0l-3.953125 6.828125l4.359375 0zm9.776855 -4.0l0.34375 0q0.515625 0 0.875 0.375q0.375 0.359375 0.375 0.875q0 0.546875 -0.375 0.90625q-0.359375 0.359375 -0.875 0.359375l-0.34375 0q-0.515625 0 -0.890625 -0.359375q-0.359375 -0.375 -0.359375 -0.890625q0 -0.546875 0.375 -0.90625q0.375 -0.359375 0.875 -0.359375zm-1.359375 5.234375l2.453125 0l-2.625 4.296875q-0.203125 0.3125 -0.3125 0.390625q-0.109375 0.09375 -0.265625 0.09375q-0.234375 0 -0.390625 -0.140625q-0.140625 -0.140625 -0.140625 -0.328125q0 -0.109375 0.0625 -0.296875l1.21875 -4.015625zm8.88623 -8.84375l2.03125 0l1.578125 4.0q0.09375 0.203125 0.09375 0.328125q0 0.1875 -0.140625 0.328125q-0.140625 0.140625 -0.34375 0.140625q-0.265625 0 -0.5 -0.375l-2.71875 -4.421875zm4.015625 0l2.015625 0l1.59375 4.0q0.078125 0.203125 0.078125 0.328125q0 0.1875 -0.140625 0.328125q-0.125 0.140625 -0.328125 0.140625q-0.265625 0 -0.5 -0.375l-2.71875 -4.421875zm14.058105 1.140625l0 -0.359375l-5.59375 0l0 0.6875q0 0.28125 -0.109375 0.40625q-0.09375 0.109375 -0.28125 0.109375q-0.15625 0 -0.28125 -0.109375q-0.109375 -0.125 -0.109375 -0.40625l0 -1.46875l7.15625 0l0 1.234375l-3.140625 10.03125q-0.0625 0.234375 -0.171875 0.3125q-0.09375 0.078125 -0.234375 0.078125q-0.15625 0 -0.28125 -0.109375q-0.109375 -0.109375 -0.109375 -0.265625q0 -0.09375 0.0625 -0.25l3.09375 -9.890625zm6.7924805 -1.140625l2.0 0l-2.71875 4.421875q-0.21875 0.375 -0.5 0.375q-0.1875 0 -0.328125 -0.140625q-0.140625 -0.140625 -0.140625 -0.328125q0 -0.125 0.078125 -0.328125l1.609375 -4.0zm4.0 0l2.015625 0l-2.71875 4.421875q-0.21875 0.375 -0.5 0.375q-0.203125 0 -0.34375 -0.140625q-0.125 -0.140625 -0.125 -0.328125q0 -0.125 0.078125 -0.328125l1.59375 -4.0z" fill-rule="nonzero"/><path fill="#000000" d="m56.127052 173.4914l0.34375 0q0.515625 0 0.890625 0.375q0.375 0.359375 0.375 0.875q0 0.53125 -0.375 0.90625q-0.375 0.359375 -0.890625 0.359375l-0.34375 0q-0.515625 0 -0.890625 -0.359375q-0.359375 -0.375 -0.359375 -0.890625q0 -0.546875 0.375 -0.90625q0.375 -0.359375 0.875 -0.359375zm11.401855 0l0.34375 0q0.515625 0 0.890625 0.375q0.375 0.359375 0.375 0.875q0 0.53125 -0.375 0.90625q-0.375 0.359375 -0.890625 0.359375l-0.34375 0q-0.515625 0 -0.890625 -0.359375q-0.359375 -0.375 -0.359375 -0.890625q0 -0.546875 0.375 -0.90625q0.375 -0.359375 0.875 -0.359375zm11.401855 0l0.34375 0q0.515625 0 0.890625 0.375q0.375 0.359375 0.375 0.875q0 0.53125 -0.375 0.90625q-0.375 0.359375 -0.890625 0.359375l-0.34375 0q-0.515625 0 -0.890625 -0.359375q-0.359375 -0.375 -0.359375 -0.890625q0 -0.546875 0.375 -0.90625q0.375 -0.359375 0.875 -0.359375z" fill-rule="nonzero"/><path fill="#999999" d="m404.021 132.08398l78.17322 0l0 -11.32283l22.64569 22.645676l-22.64569 22.64566l0 -11.32283l-78.17322 0z" fill-rule="evenodd"/><path stroke="#666666" stroke-width="3.0" stroke-linejoin="round" stroke-linecap="butt" d="m404.021 132.08398l78.17322 0l0 -11.32283l22.64569 22.645676l-22.64569 22.64566l0 -11.32283l-78.17322 0z" fill-rule="evenodd"/></g></svg>